<svg xmlns="http://www.w3.org/2000/svg" xmlns:xlink="http://www.w3.org/1999/xlink" width="500" zoomAndPan="magnify" viewBox="0 0 375 374.999991" height="500" preserveAspectRatio="xMidYMid meet" version="1.0"><defs><clipPath id="3997e05e92"><path d="M 16 181 L 187.875 181 L 187.875 191 L 16 191 Z M 16 181 " clip-rule="nonzero"/></clipPath></defs><path fill="#e0f5ff" d="M -1.589844 0 C -1.992188 0.00390625 -2.375 0.0859375 -2.746094 0.246094 C -3.113281 0.402344 -3.4375 0.625 -3.71875 0.910156 C -4 1.199219 -4.21875 1.527344 -4.367188 1.898438 C -4.519531 2.269531 -4.59375 2.65625 -4.589844 3.058594 C -4.480469 17.738281 -4.363281 32.410156 -4.242188 47.078125 C -4.011719 71.867188 -3.78125 96.660156 -3.546875 121.453125 C -3.414062 138.414062 -3.277344 155.371094 -3.140625 172.320312 C -3.171875 172.722656 -3.121094 173.113281 -2.988281 173.492188 C -2.855469 173.871094 -2.648438 174.207031 -2.375 174.503906 C -2.101562 174.796875 -1.777344 175.023438 -1.410156 175.183594 C -1.039062 175.339844 -0.652344 175.417969 -0.25 175.417969 C 0.152344 175.414062 0.535156 175.328125 0.902344 175.164062 C 1.273438 175 1.589844 174.769531 1.859375 174.472656 C 2.132812 174.175781 2.332031 173.835938 2.457031 173.453125 C 2.585938 173.070312 2.632812 172.679688 2.59375 172.28125 C 2.472656 155.316406 2.355469 138.359375 2.246094 121.410156 C 2.085938 96.621094 1.929688 71.828125 1.777344 47.035156 C 1.695312 32.355469 1.59375 17.683594 1.472656 3.015625 C 1.46875 2.613281 1.390625 2.226562 1.234375 1.855469 C 1.074219 1.484375 0.855469 1.160156 0.566406 0.875 C 0.28125 0.59375 -0.0507812 0.375 -0.425781 0.222656 C -0.796875 0.0703125 -1.1875 -0.00390625 -1.589844 0 Z M -1.589844 0 " fill-opacity="1" fill-rule="nonzero"/><path fill="#e0f5ff" d="M 17.695312 195.808594 C 17.21875 195.824219 16.777344 195.949219 16.363281 196.1875 C 15.953125 196.425781 15.621094 196.75 15.371094 197.152344 C 15.167969 197.476562 15.039062 197.828125 14.976562 198.203125 C 14.914062 198.578125 14.925781 198.949219 15.011719 199.320312 C 15.097656 199.691406 15.25 200.03125 15.472656 200.34375 C 15.695312 200.652344 15.964844 200.90625 16.289062 201.109375 C 50.179688 222.273438 84.058594 243.460938 117.925781 264.679688 L 153.882812 287.148438 C 154.226562 287.359375 154.59375 287.496094 154.988281 287.5625 C 155.386719 287.628906 155.78125 287.617188 156.171875 287.523438 C 156.5625 287.433594 156.921875 287.273438 157.246094 287.039062 C 157.574219 286.804688 157.84375 286.519531 158.054688 286.175781 C 158.265625 285.835938 158.40625 285.46875 158.472656 285.074219 C 158.539062 284.675781 158.527344 284.285156 158.433594 283.894531 C 158.34375 283.503906 158.183594 283.144531 157.949219 282.816406 C 157.714844 282.492188 157.429688 282.222656 157.089844 282.007812 L 121.109375 259.582031 C 87.1875 238.460938 53.261719 217.34375 19.328125 196.238281 C 18.828125 195.929688 18.285156 195.785156 17.695312 195.808594 Z M 17.695312 195.808594 " fill-opacity="1" fill-rule="nonzero"/><path fill="#e0f5ff" d="M 159.3125 91.972656 C 158.699219 91.925781 158.125 92.0625 157.597656 92.378906 L 119.882812 114.195312 L 56.023438 151.238281 L 12.613281 176.359375 C 12.300781 176.554688 12.03125 176.804688 11.8125 177.105469 C 11.597656 177.40625 11.441406 177.738281 11.351562 178.101562 C 11.261719 178.460938 11.242188 178.828125 11.296875 179.195312 C 11.347656 179.5625 11.46875 179.910156 11.652344 180.230469 C 11.839844 180.554688 12.078125 180.828125 12.375 181.058594 C 12.667969 181.285156 12.992188 181.453125 13.351562 181.554688 C 13.707031 181.660156 14.074219 181.691406 14.445312 181.652344 C 14.8125 181.613281 15.164062 181.507812 15.492188 181.332031 L 58.921875 156.253906 L 122.902344 119.414062 L 160.640625 97.617188 C 160.917969 97.453125 161.164062 97.25 161.378906 97.007812 C 161.59375 96.765625 161.765625 96.492188 161.890625 96.195312 C 162.019531 95.898438 162.097656 95.585938 162.125 95.265625 C 162.152344 94.941406 162.128906 94.621094 162.054688 94.308594 C 161.980469 93.992188 161.859375 93.695312 161.691406 93.417969 C 161.523438 93.144531 161.316406 92.898438 161.066406 92.6875 C 160.820312 92.480469 160.546875 92.3125 160.246094 92.191406 C 159.949219 92.066406 159.636719 91.996094 159.3125 91.972656 Z M 159.3125 91.972656 " fill-opacity="1" fill-rule="nonzero"/><path fill="#e0f5ff" d="M 0.554688 205.839844 C 0.171875 205.835938 -0.191406 205.90625 -0.542969 206.046875 C -0.898438 206.191406 -1.207031 206.394531 -1.480469 206.660156 C -1.75 206.925781 -1.960938 207.230469 -2.113281 207.582031 C -2.261719 207.929688 -2.339844 208.292969 -2.34375 208.671875 C -2.875 248.878906 -3.445312 289.078125 -4.058594 329.269531 C -4.261719 343.488281 -4.460938 357.695312 -4.652344 371.902344 C -4.65625 372.304688 -4.582031 372.691406 -4.433594 373.066406 C -4.285156 373.4375 -4.066406 373.769531 -3.785156 374.058594 C -3.503906 374.347656 -3.179688 374.570312 -2.808594 374.726562 C -2.441406 374.886719 -2.054688 374.96875 -1.652344 374.972656 C -1.246094 374.980469 -0.859375 374.90625 -0.484375 374.757812 C -0.109375 374.609375 0.222656 374.394531 0.511719 374.113281 C 0.796875 373.835938 1.023438 373.511719 1.183594 373.140625 C 1.34375 372.769531 1.425781 372.386719 1.429688 371.984375 C 1.59375 357.773438 1.796875 343.5625 1.960938 329.351562 C 2.453125 289.144531 2.933594 248.945312 3.410156 208.753906 C 3.414062 208.371094 3.34375 208.003906 3.199219 207.648438 C 3.058594 207.296875 2.851562 206.980469 2.582031 206.707031 C 2.316406 206.4375 2.007812 206.222656 1.65625 206.074219 C 1.304688 205.921875 0.9375 205.84375 0.554688 205.839844 Z M 0.554688 205.839844 " fill-opacity="1" fill-rule="nonzero"/><path fill="#e0f5ff" d="M 20.144531 18.023438 C 19.304688 17.996094 18.585938 18.273438 17.984375 18.859375 L 3.003906 33.234375 L -2.097656 38.144531 L -2.46875 38.492188 L -2.875 38.085938 L -7.507812 33.375 L -21.46875 19.042969 C -21.738281 18.796875 -22.042969 18.609375 -22.386719 18.480469 C -22.730469 18.351562 -23.085938 18.289062 -23.449219 18.292969 C -23.816406 18.300781 -24.167969 18.371094 -24.507812 18.511719 C -24.84375 18.652344 -25.144531 18.851562 -25.410156 19.105469 C -25.671875 19.359375 -25.878906 19.652344 -26.027344 19.988281 C -26.179688 20.320312 -26.261719 20.671875 -26.28125 21.035156 C -26.296875 21.402344 -26.246094 21.757812 -26.125 22.101562 C -26.007812 22.449219 -25.828125 22.761719 -25.589844 23.039062 C -20.183594 28.625 -14.773438 34.191406 -9.386719 39.796875 L -5.792969 43.527344 C -5.101562 44.242188 -4.425781 45.117188 -3.445312 45.425781 C -3.207031 45.503906 -2.964844 45.546875 -2.710938 45.546875 C -2.464844 45.5625 -2.21875 45.550781 -1.976562 45.507812 C -1.558594 45.441406 -1.179688 45.285156 -0.835938 45.039062 C -0.519531 44.8125 -0.226562 44.5625 0.0429688 44.28125 L 0.757812 43.609375 L 4.472656 40.082031 L 22.1875 23.242188 C 22.476562 22.960938 22.699219 22.636719 22.859375 22.265625 C 23.019531 21.898438 23.105469 21.511719 23.113281 21.109375 C 23.121094 20.707031 23.050781 20.316406 22.90625 19.941406 C 22.757812 19.566406 22.546875 19.230469 22.269531 18.941406 C 21.691406 18.335938 20.980469 18.03125 20.144531 18.023438 Z M 20.144531 18.023438 " fill-opacity="1" fill-rule="nonzero"/><path fill="#e0f5ff" d="M 152.292969 253.242188 L 151.71875 253.304688 C 144.183594 254.933594 136.636719 256.542969 129.085938 258.136719 L 124.046875 259.214844 C 123.085938 259.417969 121.984375 259.519531 121.1875 260.195312 C 121 260.347656 120.835938 260.523438 120.699219 260.722656 C 120.5625 260.925781 120.449219 261.132812 120.351562 261.355469 C 120.207031 261.738281 120.132812 262.132812 120.128906 262.539062 C 120.152344 262.929688 120.207031 263.316406 120.292969 263.699219 L 120.476562 264.660156 L 121.394531 269.734375 C 122.875 277.808594 124.375 285.871094 125.882812 293.917969 C 125.957031 294.3125 126.101562 294.675781 126.320312 295.015625 C 126.539062 295.351562 126.8125 295.632812 127.144531 295.859375 C 127.476562 296.089844 127.839844 296.246094 128.230469 296.328125 C 128.625 296.410156 129.019531 296.417969 129.414062 296.34375 C 129.808594 296.269531 130.175781 296.125 130.511719 295.90625 C 130.851562 295.6875 131.132812 295.414062 131.359375 295.082031 C 131.589844 294.75 131.742188 294.390625 131.828125 293.996094 C 131.910156 293.605469 131.917969 293.210938 131.84375 292.816406 C 130.5625 285.964844 129.269531 279.113281 127.964844 272.265625 L 126.617188 265.269531 L 126.496094 264.679688 L 127.109375 264.558594 L 133.515625 263.148438 L 152.945312 258.910156 C 153.316406 258.828125 153.660156 258.679688 153.972656 258.464844 C 154.285156 258.25 154.542969 257.980469 154.75 257.660156 C 154.957031 257.34375 155.09375 256.996094 155.164062 256.621094 C 155.234375 256.25 155.226562 255.875 155.148438 255.503906 C 155.074219 255.183594 154.949219 254.878906 154.773438 254.601562 C 154.597656 254.320312 154.378906 254.078125 154.117188 253.871094 C 153.859375 253.667969 153.570312 253.511719 153.257812 253.402344 C 152.945312 253.292969 152.625 253.238281 152.292969 253.242188 Z M 152.292969 253.242188 " fill-opacity="1" fill-rule="nonzero"/><path fill="#e0f5ff" d="M 133.109375 81.511719 C 132.777344 81.484375 132.453125 81.515625 132.136719 81.601562 C 131.816406 81.683594 131.519531 81.820312 131.25 82.007812 C 130.976562 82.195312 130.746094 82.425781 130.554688 82.691406 C 130.359375 82.960938 130.21875 83.253906 130.128906 83.570312 C 127.964844 91.113281 125.789062 98.644531 123.597656 106.160156 C 123.128906 107.8125 122.636719 109.464844 122.148438 111.117188 C 122.085938 111.378906 122.003906 111.644531 121.925781 111.910156 C 121.800781 112.277344 121.703125 112.652344 121.636719 113.03125 C 121.574219 113.605469 121.65625 114.15625 121.882812 114.683594 C 122.007812 114.925781 122.148438 115.15625 122.3125 115.375 C 122.585938 115.691406 122.90625 115.949219 123.269531 116.152344 C 123.535156 116.273438 123.820312 116.355469 124.109375 116.457031 L 124.984375 116.742188 L 126.453125 117.210938 L 128.1875 117.78125 L 130.269531 118.457031 L 153.273438 125.816406 C 153.65625 125.9375 154.046875 125.980469 154.445312 125.945312 C 154.847656 125.914062 155.226562 125.804688 155.582031 125.621094 C 155.941406 125.433594 156.246094 125.1875 156.507812 124.882812 C 156.765625 124.574219 156.957031 124.230469 157.078125 123.847656 C 157.199219 123.464844 157.242188 123.074219 157.210938 122.675781 C 157.175781 122.273438 157.066406 121.894531 156.882812 121.539062 C 156.695312 121.183594 156.449219 120.875 156.144531 120.617188 C 155.835938 120.359375 155.492188 120.167969 155.109375 120.046875 L 135.375 113.808594 L 128.863281 111.769531 L 128.148438 111.542969 C 128.230469 111.300781 128.292969 111.035156 128.375 110.789062 C 128.984375 108.628906 129.578125 106.488281 130.191406 104.347656 C 131.984375 97.945312 133.820312 91.542969 135.636719 85.160156 C 135.746094 84.796875 135.777344 84.425781 135.738281 84.046875 C 135.695312 83.667969 135.582031 83.3125 135.398438 82.980469 C 135.214844 82.648438 134.972656 82.363281 134.675781 82.125 C 134.378906 81.886719 134.046875 81.71875 133.679688 81.613281 C 133.492188 81.5625 133.300781 81.527344 133.109375 81.511719 Z M 133.109375 81.511719 " fill-opacity="1" fill-rule="nonzero"/><path fill="#e0f5ff" d="M 0.839844 329.410156 C 0.585938 329.394531 0.335938 329.40625 0.0859375 329.453125 C -0.324219 329.535156 -0.699219 329.699219 -1.039062 329.941406 C -1.355469 330.167969 -1.648438 330.417969 -1.914062 330.695312 C -2.160156 330.921875 -2.386719 331.144531 -2.609375 331.390625 L -6.324219 334.9375 L -23.894531 351.921875 C -24.207031 352.195312 -24.449219 352.523438 -24.625 352.898438 C -24.800781 353.273438 -24.894531 353.667969 -24.90625 354.082031 C -24.921875 354.496094 -24.855469 354.898438 -24.703125 355.28125 C -24.554688 355.667969 -24.335938 356.011719 -24.042969 356.308594 C -23.753906 356.605469 -23.417969 356.832031 -23.035156 356.992188 C -22.652344 357.148438 -22.253906 357.226562 -21.839844 357.222656 C -21.421875 357.21875 -21.027344 357.132812 -20.644531 356.964844 C -20.265625 356.800781 -19.933594 356.566406 -19.652344 356.261719 L -4.773438 341.789062 L 0.289062 336.8125 L 0.636719 336.464844 L 1.0625 336.894531 L 5.695312 341.5625 C 10.410156 346.273438 15.085938 351.023438 19.777344 355.773438 C 20.039062 356.074219 20.347656 356.308594 20.707031 356.480469 C 21.066406 356.648438 21.445312 356.742188 21.84375 356.757812 C 22.238281 356.773438 22.621094 356.707031 22.992188 356.5625 C 23.363281 356.417969 23.691406 356.207031 23.972656 355.929688 C 24.253906 355.648438 24.46875 355.324219 24.617188 354.957031 C 24.765625 354.585938 24.835938 354.207031 24.824219 353.808594 C 24.8125 353.410156 24.726562 353.03125 24.558594 352.671875 C 24.390625 352.3125 24.15625 352 23.859375 351.738281 C 18.40625 346.21875 12.960938 340.679688 7.535156 335.121094 L 3.921875 331.410156 C 3.226562 330.71875 2.554688 329.839844 1.554688 329.535156 C 1.320312 329.472656 1.082031 329.429688 0.839844 329.410156 Z M 0.839844 329.410156 " fill-opacity="1" fill-rule="nonzero"/><path fill="#e0f5ff" d="M 21.105469 53.375 C 20.269531 53.359375 19.546875 53.636719 18.941406 54.210938 L 4.1875 68.382812 L -0.855469 73.214844 L -1.242188 73.601562 L -1.589844 73.273438 L -6.058594 68.992188 C -10.589844 64.671875 -15.078125 60.328125 -19.589844 55.984375 C -19.867188 55.746094 -20.179688 55.570312 -20.527344 55.449219 C -20.871094 55.332031 -21.230469 55.28125 -21.59375 55.296875 C -21.960938 55.3125 -22.308594 55.398438 -22.644531 55.546875 C -22.976562 55.699219 -23.273438 55.90625 -23.527344 56.167969 C -23.78125 56.429688 -23.980469 56.730469 -24.121094 57.066406 C -24.261719 57.40625 -24.332031 57.757812 -24.339844 58.125 C -24.34375 58.488281 -24.285156 58.84375 -24.152344 59.183594 C -24.023438 59.527344 -23.835938 59.832031 -23.589844 60.105469 C -18.285156 65.230469 -12.992188 70.359375 -7.710938 75.496094 L -4.40625 78.71875 C -3.691406 79.410156 -3.019531 80.226562 -2.019531 80.492188 C -1.785156 80.558594 -1.546875 80.59375 -1.304688 80.59375 C -1.0625 80.597656 -0.824219 80.570312 -0.589844 80.511719 C -0.207031 80.433594 0.148438 80.28125 0.472656 80.0625 C 0.714844 79.894531 0.941406 79.707031 1.144531 79.492188 L 2.023438 78.65625 L 5.859375 75.007812 C 11.640625 69.570312 17.40625 64.101562 23.144531 58.59375 C 23.433594 58.316406 23.660156 57.992188 23.820312 57.625 C 23.980469 57.257812 24.0625 56.871094 24.070312 56.472656 C 24.078125 56.070312 24.007812 55.683594 23.863281 55.308594 C 23.71875 54.9375 23.503906 54.605469 23.226562 54.3125 C 22.652344 53.703125 21.945312 53.390625 21.105469 53.375 Z M 21.105469 53.375 " fill-opacity="1" fill-rule="nonzero"/><path fill="#e0f5ff" d="M 120.414062 234.996094 C 120.21875 235 120.03125 235.027344 119.84375 235.074219 L 98.394531 240.375 L 96.1875 240.925781 L 94.738281 241.273438 L 93.269531 241.640625 C 92.882812 241.707031 92.507812 241.816406 92.148438 241.96875 C 91.609375 242.195312 91.179688 242.558594 90.863281 243.046875 C 90.699219 243.25 90.578125 243.472656 90.496094 243.71875 C 90.375 244.085938 90.3125 244.457031 90.3125 244.839844 C 90.332031 245.128906 90.371094 245.414062 90.433594 245.699219 C 90.496094 246.085938 90.578125 246.492188 90.65625 246.878906 C 90.964844 248.632812 91.289062 250.386719 91.597656 252.121094 C 93.039062 259.988281 94.496094 267.859375 95.964844 275.730469 C 96.011719 276.148438 96.140625 276.542969 96.351562 276.910156 C 96.5625 277.277344 96.835938 277.585938 97.175781 277.839844 C 97.515625 278.089844 97.894531 278.261719 98.304688 278.359375 C 98.71875 278.453125 99.132812 278.460938 99.550781 278.382812 C 99.964844 278.304688 100.347656 278.144531 100.699219 277.90625 C 101.046875 277.667969 101.335938 277.371094 101.5625 277.011719 C 101.785156 276.65625 101.929688 276.265625 101.992188 275.847656 C 102.058594 275.429688 102.035156 275.015625 101.921875 274.609375 C 100.65625 267.867188 99.386719 261.117188 98.105469 254.363281 C 97.65625 252.058594 97.230469 249.753906 96.78125 247.472656 L 96.65625 246.839844 L 97.25 246.695312 L 103.269531 245.148438 L 121.230469 240.640625 C 121.570312 240.550781 121.878906 240.398438 122.164062 240.195312 C 122.449219 239.988281 122.6875 239.738281 122.878906 239.445312 C 123.070312 239.152344 123.207031 238.835938 123.28125 238.492188 C 123.359375 238.148438 123.371094 237.804688 123.320312 237.457031 C 123.269531 237.109375 123.160156 236.785156 122.992188 236.476562 C 122.820312 236.167969 122.601562 235.902344 122.335938 235.675781 C 122.066406 235.449219 121.765625 235.277344 121.4375 235.160156 C 121.105469 235.042969 120.765625 234.988281 120.414062 234.996094 Z M 120.414062 234.996094 " fill-opacity="1" fill-rule="nonzero"/><path fill="#e0f5ff" d="M 102.105469 101.308594 C 101.777344 101.292969 101.457031 101.335938 101.140625 101.433594 C 100.824219 101.53125 100.535156 101.675781 100.273438 101.875 C 100.007812 102.070312 99.785156 102.304688 99.601562 102.578125 C 99.421875 102.855469 99.289062 103.152344 99.210938 103.46875 C 97.394531 110.585938 95.597656 117.699219 93.761719 124.796875 C 93.351562 126.367188 92.964844 127.957031 92.554688 129.527344 C 92.3125 130.464844 91.945312 131.464844 92.1875 132.441406 C 92.25 132.667969 92.332031 132.882812 92.433594 133.09375 C 92.539062 133.300781 92.667969 133.492188 92.820312 133.664062 C 93.515625 134.480469 94.496094 134.683594 95.453125 134.988281 L 96.882812 135.460938 L 98.597656 136.03125 L 100.65625 136.683594 C 108.210938 139.128906 115.761719 141.535156 123.3125 143.960938 C 123.695312 144.082031 124.085938 144.125 124.484375 144.089844 C 124.886719 144.054688 125.265625 143.945312 125.621094 143.761719 C 125.976562 143.578125 126.285156 143.332031 126.542969 143.027344 C 126.800781 142.71875 126.992188 142.375 127.113281 141.992188 C 127.234375 141.609375 127.28125 141.21875 127.246094 140.820312 C 127.210938 140.417969 127.101562 140.042969 126.917969 139.683594 C 126.734375 139.328125 126.488281 139.019531 126.183594 138.761719 C 125.875 138.503906 125.53125 138.3125 125.148438 138.191406 L 105.699219 132.011719 L 99.289062 130.015625 L 98.535156 129.769531 C 98.59375 129.597656 98.644531 129.421875 98.679688 129.242188 C 99.167969 127.222656 99.679688 125.203125 100.167969 123.207031 L 104.761719 104.875 C 104.855469 104.507812 104.878906 104.136719 104.824219 103.761719 C 104.773438 103.382812 104.648438 103.03125 104.457031 102.707031 C 104.261719 102.378906 104.011719 102.101562 103.707031 101.871094 C 103.40625 101.644531 103.066406 101.484375 102.699219 101.390625 C 102.503906 101.335938 102.308594 101.308594 102.105469 101.308594 Z M 102.105469 101.308594 " fill-opacity="1" fill-rule="nonzero"/><path fill="#e0f5ff" d="M -0.792969 294.386719 C -1.0625 294.386719 -1.328125 294.421875 -1.589844 294.488281 C -1.972656 294.5625 -2.328125 294.714844 -2.652344 294.933594 C -2.875 295.109375 -3.085938 295.300781 -3.285156 295.507812 L -4.160156 296.34375 L -7.8125 299.847656 C -13.582031 305.421875 -19.351562 310.996094 -25.121094 316.566406 C -25.371094 316.855469 -25.5625 317.175781 -25.691406 317.535156 C -25.820312 317.894531 -25.882812 318.265625 -25.871094 318.648438 C -25.859375 319.027344 -25.78125 319.394531 -25.632812 319.746094 C -25.484375 320.097656 -25.277344 320.410156 -25.011719 320.683594 C -24.746094 320.957031 -24.4375 321.171875 -24.089844 321.332031 C -23.742188 321.488281 -23.378906 321.578125 -23 321.601562 C -22.617188 321.621094 -22.246094 321.570312 -21.882812 321.453125 C -21.519531 321.332031 -21.191406 321.152344 -20.894531 320.910156 L -6.242188 306.636719 L -1.242188 301.765625 L -0.855469 301.378906 L -0.425781 301.765625 L 4.125 306.046875 L 17.636719 318.851562 C 17.910156 319.113281 18.222656 319.316406 18.578125 319.453125 C 18.929688 319.589844 19.296875 319.65625 19.675781 319.644531 C 20.058594 319.636719 20.421875 319.554688 20.765625 319.398438 C 21.113281 319.242188 21.417969 319.027344 21.675781 318.75 C 21.941406 318.472656 22.140625 318.160156 22.277344 317.804688 C 22.417969 317.449219 22.480469 317.082031 22.476562 316.703125 C 22.46875 316.324219 22.386719 315.957031 22.234375 315.609375 C 22.082031 315.261719 21.867188 314.957031 21.59375 314.691406 C 16.21875 309.59375 10.867188 304.484375 5.535156 299.359375 L 3.878906 297.789062 L 2.796875 296.730469 L 1.695312 295.691406 C 1.421875 295.410156 1.128906 295.152344 0.820312 294.914062 C 0.328125 294.59375 -0.207031 294.414062 -0.792969 294.386719 Z M -0.792969 294.386719 " fill-opacity="1" fill-rule="nonzero"/><path fill="#e0f5ff" d="M -21.140625 88.566406 C -21.929688 88.542969 -22.617188 88.792969 -23.203125 89.320312 C -23.480469 89.578125 -23.699219 89.878906 -23.859375 90.226562 C -24.019531 90.570312 -24.109375 90.933594 -24.125 91.3125 C -24.144531 91.691406 -24.085938 92.058594 -23.960938 92.417969 C -23.832031 92.773438 -23.640625 93.09375 -23.386719 93.378906 C -18.121094 99.140625 -12.867188 104.917969 -7.628906 110.707031 L -6.078125 112.441406 C -5.652344 112.890625 -5.242188 113.359375 -4.835938 113.808594 L -3.894531 114.847656 C -3.648438 115.144531 -3.375 115.414062 -3.078125 115.664062 C -2.726562 115.933594 -2.332031 116.117188 -1.894531 116.210938 C -1.632812 116.273438 -1.367188 116.292969 -1.097656 116.273438 C -0.847656 116.273438 -0.601562 116.230469 -0.363281 116.152344 C 0.554688 115.886719 1.164062 115.152344 1.820312 114.5 L 2.878906 113.441406 L 4.144531 112.214844 C 4.636719 111.707031 5.144531 111.21875 5.65625 110.707031 C 11.191406 105.242188 16.71875 99.753906 22.226562 94.234375 C 22.535156 93.953125 22.773438 93.625 22.941406 93.246094 C 23.113281 92.867188 23.203125 92.472656 23.210938 92.058594 C 23.21875 91.644531 23.148438 91.242188 22.992188 90.859375 C 22.835938 90.472656 22.609375 90.136719 22.316406 89.84375 C 22.023438 89.550781 21.683594 89.328125 21.296875 89.171875 C 20.910156 89.019531 20.511719 88.949219 20.09375 88.957031 C 19.679688 88.96875 19.285156 89.0625 18.90625 89.234375 C 18.527344 89.40625 18.199219 89.644531 17.921875 89.953125 C 13.199219 94.667969 8.484375 99.398438 3.777344 104.144531 L -0.875 108.832031 L -1.160156 109.097656 L -1.40625 108.832031 L -5.8125 104.039062 C -10.261719 99.214844 -14.707031 94.371094 -19.140625 89.503906 C -19.679688 88.917969 -20.34375 88.605469 -21.140625 88.566406 Z M -21.140625 88.566406 " fill-opacity="1" fill-rule="nonzero"/><path fill="#e0f5ff" d="M 94.066406 25.058594 C 93.5625 25.082031 93.09375 25.226562 92.660156 25.484375 C 92.226562 25.746094 91.878906 26.09375 91.617188 26.523438 C 84.050781 39.015625 76.480469 51.515625 68.902344 64.019531 C 56.113281 85.15625 43.335938 106.304688 30.574219 127.46875 C 21.839844 141.929688 13.089844 156.378906 4.328125 170.8125 C 4.128906 171.136719 4.003906 171.488281 3.941406 171.863281 C 3.882812 172.238281 3.898438 172.609375 3.988281 172.980469 C 4.078125 173.351562 4.238281 173.6875 4.460938 173.996094 C 4.6875 174.300781 4.960938 174.554688 5.285156 174.75 C 5.609375 174.949219 5.960938 175.078125 6.335938 175.136719 C 6.714844 175.191406 7.085938 175.175781 7.457031 175.085938 C 7.824219 174.996094 8.164062 174.839844 8.472656 174.613281 C 8.777344 174.390625 9.03125 174.113281 9.226562 173.789062 L 35.535156 130.464844 C 48.363281 109.367188 61.203125 88.265625 74.046875 67.160156 C 81.636719 54.652344 89.222656 42.15625 96.800781 29.664062 C 97.011719 29.320312 97.144531 28.953125 97.207031 28.554688 C 97.269531 28.15625 97.253906 27.761719 97.15625 27.375 C 97.0625 26.984375 96.894531 26.625 96.65625 26.300781 C 96.417969 25.976562 96.125 25.710938 95.78125 25.503906 C 95.253906 25.183594 94.683594 25.035156 94.066406 25.058594 Z M 94.066406 25.058594 " fill-opacity="1" fill-rule="nonzero"/><path fill="#e0f5ff" d="M 66.125 28.6875 C 65.933594 28.6875 65.742188 28.707031 65.554688 28.746094 C 65.183594 28.832031 64.839844 28.980469 64.53125 29.199219 C 64.21875 29.417969 63.960938 29.6875 63.753906 30.007812 C 63.550781 30.328125 63.414062 30.679688 63.347656 31.050781 C 63.28125 31.425781 63.289062 31.800781 63.371094 32.171875 C 65.046875 39.8125 66.703125 47.464844 68.351562 55.128906 C 68.71875 56.820312 69.085938 58.515625 69.433594 60.207031 L 69.617188 61 C 69.683594 61.390625 69.777344 61.769531 69.902344 62.144531 C 70.21875 62.980469 70.796875 63.558594 71.636719 63.875 C 72.023438 64.03125 72.425781 64.105469 72.839844 64.101562 C 73.21875 64.0625 73.59375 64 73.964844 63.917969 L 74.921875 63.714844 L 79.921875 62.734375 L 103.738281 57.964844 C 104.125 57.875 104.480469 57.71875 104.804688 57.488281 C 105.132812 57.261719 105.402344 56.984375 105.617188 56.648438 C 105.832031 56.316406 105.976562 55.957031 106.050781 55.566406 C 106.121094 55.175781 106.121094 54.789062 106.042969 54.402344 C 105.964844 54.011719 105.8125 53.652344 105.59375 53.324219 C 105.375 52.992188 105.101562 52.714844 104.773438 52.492188 C 104.449219 52.269531 104.089844 52.117188 103.703125 52.03125 C 103.316406 51.949219 102.925781 51.941406 102.535156 52.011719 L 82.3125 56.148438 L 75.414062 57.578125 L 74.921875 57.679688 L 74.738281 56.964844 C 74.269531 54.78125 73.78125 52.601562 73.289062 50.421875 C 71.839844 43.9375 70.414062 37.433594 68.984375 30.949219 C 68.914062 30.625 68.789062 30.320312 68.613281 30.039062 C 68.4375 29.757812 68.21875 29.515625 67.960938 29.308594 C 67.699219 29.101562 67.410156 28.945312 67.097656 28.839844 C 66.78125 28.730469 66.457031 28.679688 66.125 28.6875 Z M 66.125 28.6875 " fill-opacity="1" fill-rule="nonzero"/><path fill="#e0f5ff" d="M 48.332031 61.101562 C 48.136719 61.109375 47.945312 61.136719 47.757812 61.183594 C 47.390625 61.277344 47.050781 61.4375 46.746094 61.667969 C 46.441406 61.894531 46.191406 62.171875 45.996094 62.5 C 45.800781 62.824219 45.675781 63.175781 45.621094 63.554688 C 45.566406 63.929688 45.585938 64.300781 45.675781 64.671875 C 47.492188 71.890625 49.332031 79.105469 51.105469 86.34375 L 51.65625 88.566406 L 52.390625 91.542969 C 52.480469 91.917969 52.585938 92.285156 52.71875 92.644531 C 52.960938 93.175781 53.320312 93.613281 53.800781 93.949219 C 54.015625 94.09375 54.246094 94.207031 54.492188 94.296875 C 54.867188 94.441406 55.257812 94.5 55.65625 94.480469 C 55.941406 94.46875 56.21875 94.425781 56.492188 94.355469 L 57.675781 94.132812 L 62.597656 93.152344 L 86.066406 88.464844 C 86.460938 88.382812 86.824219 88.234375 87.15625 88.007812 C 87.488281 87.785156 87.765625 87.503906 87.988281 87.171875 C 88.210938 86.835938 88.359375 86.472656 88.4375 86.078125 C 88.515625 85.683594 88.511719 85.289062 88.433594 84.894531 C 88.351562 84.503906 88.203125 84.140625 87.976562 83.808594 C 87.753906 83.472656 87.472656 83.195312 87.136719 82.976562 C 86.804688 82.753906 86.4375 82.605469 86.042969 82.527344 C 85.648438 82.449219 85.253906 82.453125 84.863281 82.53125 L 64.941406 86.589844 L 58.125 87.996094 L 57.597656 88.097656 C 57.554688 87.914062 57.492188 87.710938 57.453125 87.507812 L 55.859375 81.410156 C 54.308594 75.375 52.773438 69.328125 51.25 63.265625 C 51.167969 62.945312 51.035156 62.648438 50.847656 62.371094 C 50.664062 62.097656 50.441406 61.863281 50.175781 61.664062 C 49.910156 61.46875 49.617188 61.320312 49.300781 61.226562 C 48.984375 61.128906 48.660156 61.089844 48.332031 61.101562 Z M 48.332031 61.101562 " fill-opacity="1" fill-rule="nonzero"/><path fill="#e0f5ff" d="M 31.328125 89.585938 L 30.738281 89.625 C 30.363281 89.699219 30.015625 89.839844 29.699219 90.046875 C 29.378906 90.257812 29.113281 90.519531 28.898438 90.835938 C 28.683594 91.152344 28.539062 91.496094 28.460938 91.867188 C 28.382812 92.242188 28.378906 92.617188 28.453125 92.992188 C 29.902344 100.800781 31.371094 108.628906 32.800781 116.4375 L 33.226562 118.800781 C 33.328125 119.332031 33.410156 119.863281 33.511719 120.390625 C 33.617188 120.921875 33.65625 121.1875 33.71875 121.574219 C 33.785156 121.953125 33.875 122.328125 33.984375 122.695312 C 34.179688 123.257812 34.511719 123.71875 34.984375 124.082031 C 35.089844 124.175781 35.207031 124.257812 35.328125 124.328125 C 35.585938 124.476562 35.859375 124.582031 36.144531 124.652344 C 37.023438 124.878906 37.921875 124.59375 38.757812 124.410156 L 40.207031 124.082031 L 41.921875 123.714844 L 43.984375 123.246094 L 66.65625 118.191406 C 67.027344 118.082031 67.367188 117.90625 67.671875 117.667969 C 67.976562 117.433594 68.226562 117.144531 68.421875 116.8125 C 68.617188 116.480469 68.746094 116.121094 68.804688 115.738281 C 68.863281 115.359375 68.847656 114.980469 68.761719 114.601562 C 68.675781 114.226562 68.523438 113.878906 68.308594 113.558594 C 68.089844 113.238281 67.816406 112.972656 67.496094 112.757812 C 67.175781 112.539062 66.828125 112.390625 66.449219 112.308594 C 66.070312 112.226562 65.691406 112.214844 65.308594 112.277344 L 45.882812 116.703125 L 39.492188 118.171875 L 39.105469 118.25 C 39.066406 118.089844 39.042969 117.90625 39.003906 117.722656 C 38.59375 115.582031 38.167969 113.398438 37.757812 111.238281 C 36.515625 104.816406 35.308594 98.371094 34.105469 91.929688 C 34.042969 91.605469 33.929688 91.300781 33.761719 91.015625 C 33.59375 90.730469 33.382812 90.484375 33.132812 90.269531 C 32.878906 90.054688 32.597656 89.890625 32.289062 89.773438 C 31.980469 89.65625 31.660156 89.59375 31.328125 89.585938 Z M 31.328125 89.585938 " fill-opacity="1" fill-rule="nonzero"/><path fill="#e0f5ff" d="M 11.941406 121.984375 L 11.351562 122.023438 C 10.976562 122.097656 10.628906 122.238281 10.3125 122.449219 C 9.996094 122.660156 9.730469 122.921875 9.515625 123.238281 C 9.300781 123.550781 9.15625 123.894531 9.078125 124.269531 C 9 124.640625 8.996094 125.011719 9.0625 125.386719 C 10.507812 133.121094 11.933594 140.847656 13.351562 148.570312 L 13.777344 150.851562 C 13.878906 151.464844 14.003906 152.074219 14.105469 152.6875 L 14.351562 154.074219 C 14.40625 154.453125 14.496094 154.828125 14.613281 155.195312 C 14.777344 155.605469 15.015625 155.964844 15.328125 156.277344 C 15.515625 156.453125 15.71875 156.609375 15.941406 156.746094 C 16.167969 156.871094 16.40625 156.964844 16.65625 157.03125 C 17.574219 157.292969 18.472656 156.988281 19.371094 156.804688 L 20.820312 156.480469 L 22.535156 156.113281 L 24.59375 155.644531 L 47.269531 150.585938 C 47.640625 150.476562 47.976562 150.304688 48.28125 150.066406 C 48.585938 149.828125 48.835938 149.542969 49.03125 149.210938 C 49.230469 148.875 49.355469 148.519531 49.414062 148.136719 C 49.472656 147.753906 49.460938 147.375 49.375 147 C 49.289062 146.621094 49.136719 146.273438 48.917969 145.957031 C 48.699219 145.636719 48.429688 145.371094 48.109375 145.152344 C 47.789062 144.9375 47.4375 144.789062 47.0625 144.707031 C 46.683594 144.621094 46.304688 144.613281 45.921875 144.675781 L 26.511719 149.097656 L 20.105469 150.566406 L 19.71875 150.648438 C 19.695312 150.503906 19.65625 150.363281 19.636719 150.242188 L 18.410156 143.816406 C 17.144531 137.316406 15.941406 130.832031 14.71875 124.328125 C 14.65625 124.003906 14.539062 123.699219 14.371094 123.414062 C 14.207031 123.128906 13.996094 122.878906 13.742188 122.667969 C 13.492188 122.453125 13.210938 122.289062 12.902344 122.171875 C 12.59375 122.054688 12.273438 121.992188 11.941406 121.984375 Z M 11.941406 121.984375 " fill-opacity="1" fill-rule="nonzero"/><g clip-path="url(#3997e05e92)"><path fill="#e0f5ff" d="M 184.722656 181.882812 C 170.3125 182.101562 155.90625 182.324219 141.496094 182.554688 C 100.761719 183.207031 60.019531 183.859375 19.269531 184.511719 C 18.886719 184.519531 18.523438 184.597656 18.171875 184.75 C 17.824219 184.902344 17.515625 185.113281 17.25 185.386719 C 16.984375 185.660156 16.78125 185.972656 16.640625 186.328125 C 16.5 186.679688 16.433594 187.046875 16.4375 187.429688 C 16.441406 187.808594 16.519531 188.175781 16.671875 188.523438 C 16.824219 188.875 17.035156 189.179688 17.308594 189.445312 C 17.582031 189.710938 17.894531 189.917969 18.246094 190.058594 C 18.601562 190.199219 18.96875 190.265625 19.351562 190.261719 C 60.085938 189.652344 100.835938 189.085938 141.597656 188.570312 L 184.824219 187.957031 C 185.226562 187.953125 185.613281 187.867188 185.984375 187.707031 C 186.351562 187.546875 186.675781 187.320312 186.957031 187.03125 C 187.238281 186.742188 187.449219 186.410156 187.597656 186.035156 C 187.746094 185.660156 187.816406 185.273438 187.8125 184.871094 C 187.804688 184.46875 187.71875 184.082031 187.558594 183.710938 C 187.398438 183.34375 187.175781 183.019531 186.886719 182.738281 C 186.59375 182.457031 186.261719 182.242188 185.886719 182.09375 C 185.511719 181.949219 185.125 181.875 184.722656 181.882812 Z M 184.722656 181.882812 " fill-opacity="1" fill-rule="nonzero"/></g><path fill="#e0f5ff" d="M 166.988281 159.90625 C 166.191406 159.921875 165.519531 160.210938 164.964844 160.78125 C 159.5625 166.300781 154.140625 171.8125 148.699219 177.316406 L 145.066406 180.984375 C 144.394531 181.679688 143.535156 182.371094 143.25 183.351562 C 143.113281 183.8125 143.085938 184.28125 143.167969 184.757812 C 143.246094 185.160156 143.394531 185.535156 143.617188 185.878906 C 143.84375 186.195312 144.09375 186.488281 144.375 186.753906 L 145.046875 187.46875 L 148.515625 191.222656 C 154.027344 197.175781 159.550781 203.113281 165.089844 209.039062 C 165.367188 209.320312 165.6875 209.539062 166.050781 209.699219 C 166.414062 209.855469 166.792969 209.9375 167.1875 209.945312 C 167.585938 209.953125 167.96875 209.886719 168.335938 209.746094 C 168.707031 209.605469 169.039062 209.402344 169.328125 209.132812 C 169.617188 208.863281 169.84375 208.546875 170.011719 208.1875 C 170.179688 207.832031 170.273438 207.453125 170.292969 207.058594 C 170.3125 206.664062 170.257812 206.28125 170.125 205.90625 C 169.996094 205.535156 169.800781 205.199219 169.539062 204.902344 C 164.828125 199.871094 160.109375 194.84375 155.375 189.8125 L 150.535156 184.675781 C 150.390625 184.535156 150.253906 184.386719 150.128906 184.226562 C 150.273438 184.066406 150.433594 183.921875 150.597656 183.757812 L 155.148438 179.050781 C 159.773438 174.277344 164.414062 169.519531 169.066406 164.777344 C 169.46875 164.363281 169.722656 163.871094 169.828125 163.300781 C 169.933594 162.734375 169.871094 162.183594 169.644531 161.652344 C 169.417969 161.121094 169.0625 160.695312 168.578125 160.378906 C 168.097656 160.058594 167.566406 159.902344 166.988281 159.90625 Z M 166.988281 159.90625 " fill-opacity="1" fill-rule="nonzero"/><path fill="#e0f5ff" d="M 130.742188 162.125 C 129.945312 162.167969 129.277344 162.480469 128.742188 163.066406 L 113.964844 179.089844 L 110.679688 182.636719 C 110.003906 183.351562 109.230469 184.042969 108.984375 185.023438 C 108.917969 185.25 108.886719 185.480469 108.882812 185.714844 C 108.882812 185.941406 108.902344 186.167969 108.945312 186.390625 C 109.03125 186.769531 109.179688 187.121094 109.394531 187.449219 C 109.566406 187.6875 109.757812 187.910156 109.964844 188.121094 L 110.78125 189 C 111.984375 190.28125 113.167969 191.585938 114.351562 192.871094 C 119.742188 198.675781 125.136719 204.472656 130.535156 210.261719 C 130.800781 210.59375 131.121094 210.855469 131.496094 211.050781 C 131.871094 211.25 132.269531 211.363281 132.691406 211.390625 C 133.113281 211.421875 133.523438 211.367188 133.921875 211.226562 C 134.320312 211.082031 134.675781 210.867188 134.984375 210.578125 C 135.292969 210.292969 135.53125 209.953125 135.699219 209.5625 C 135.867188 209.175781 135.949219 208.769531 135.949219 208.347656 C 135.945312 207.925781 135.859375 207.519531 135.6875 207.132812 C 135.519531 206.746094 135.277344 206.410156 134.964844 206.125 L 121.027344 191.261719 L 116.25 186.183594 L 115.820312 185.714844 L 116.1875 185.308594 L 120.351562 180.742188 C 124.542969 176.132812 128.753906 171.53125 132.984375 166.9375 C 133.378906 166.511719 133.617188 166.007812 133.707031 165.433594 C 133.792969 164.859375 133.714844 164.3125 133.46875 163.785156 C 133.222656 163.257812 132.851562 162.84375 132.355469 162.542969 C 131.859375 162.242188 131.320312 162.101562 130.742188 162.125 Z M 130.742188 162.125 " fill-opacity="1" fill-rule="nonzero"/><path fill="#e0f5ff" d="M 98.269531 162.675781 C 97.480469 162.671875 96.800781 162.945312 96.230469 163.492188 C 90.71875 168.765625 85.203125 174.035156 79.679688 179.292969 L 76.289062 182.515625 L 75.433594 183.332031 C 75.148438 183.589844 74.882812 183.867188 74.636719 184.167969 C 74.277344 184.628906 74.070312 185.152344 74.023438 185.738281 C 73.960938 186.316406 74.0625 186.867188 74.332031 187.386719 C 74.554688 187.855469 74.921875 188.203125 75.269531 188.570312 L 76.496094 189.8125 L 77.738281 191.117188 L 79.230469 192.648438 C 84.699219 198.316406 90.183594 203.957031 95.679688 209.570312 C 95.949219 209.898438 96.273438 210.15625 96.652344 210.347656 C 97.03125 210.539062 97.433594 210.648438 97.855469 210.671875 C 98.28125 210.695312 98.691406 210.628906 99.089844 210.480469 C 99.488281 210.332031 99.839844 210.109375 100.144531 209.816406 C 100.449219 209.519531 100.679688 209.175781 100.839844 208.78125 C 101 208.390625 101.074219 207.980469 101.0625 207.558594 C 101.050781 207.132812 100.957031 206.730469 100.777344 206.34375 C 100.59375 205.960938 100.34375 205.628906 100.027344 205.351562 C 95.371094 200.597656 90.738281 195.847656 86.066406 191.097656 L 81.453125 186.410156 L 81.105469 186.042969 L 81.515625 185.65625 L 86.207031 181.109375 C 90.863281 176.609375 95.527344 172.117188 100.210938 167.632812 C 100.484375 167.367188 100.695312 167.0625 100.847656 166.714844 C 101 166.363281 101.082031 166 101.089844 165.621094 C 101.097656 165.238281 101.03125 164.871094 100.894531 164.519531 C 100.753906 164.164062 100.554688 163.847656 100.289062 163.574219 C 99.738281 163 99.066406 162.699219 98.269531 162.675781 Z M 98.269531 162.675781 " fill-opacity="1" fill-rule="nonzero"/><path fill="#e0f5ff" d="M 61.25 163.453125 C 60.453125 163.445312 59.765625 163.71875 59.1875 164.269531 C 53.675781 169.554688 48.160156 174.828125 42.636719 180.089844 L 39.269531 183.289062 L 38.410156 184.105469 C 38.113281 184.351562 37.84375 184.625 37.59375 184.921875 C 37.242188 185.390625 37.039062 185.914062 36.984375 186.5 C 36.929688 187.082031 37.03125 187.636719 37.289062 188.164062 C 37.546875 188.601562 37.859375 188.996094 38.226562 189.34375 L 39.453125 190.589844 L 40.699219 191.875 L 42.1875 193.421875 L 58.65625 210.367188 C 58.941406 210.632812 59.269531 210.839844 59.632812 210.980469 C 59.996094 211.121094 60.375 211.191406 60.769531 211.1875 C 61.160156 211.183594 61.535156 211.105469 61.898438 210.957031 C 62.261719 210.808594 62.582031 210.597656 62.863281 210.324219 C 63.140625 210.050781 63.363281 209.734375 63.519531 209.375 C 63.679688 209.019531 63.761719 208.644531 63.777344 208.253906 C 63.789062 207.859375 63.730469 207.480469 63.597656 207.113281 C 63.460938 206.746094 63.265625 206.417969 63.003906 206.125 C 58.351562 201.375 53.699219 196.601562 49.023438 191.875 L 44.410156 187.183594 L 44.066406 186.835938 L 44.472656 186.429688 L 49.167969 181.882812 L 63.167969 168.386719 C 63.441406 168.125 63.65625 167.820312 63.8125 167.472656 C 63.964844 167.128906 64.046875 166.765625 64.054688 166.382812 C 64.0625 166.003906 63.996094 165.640625 63.855469 165.285156 C 63.714844 164.933594 63.515625 164.621094 63.25 164.347656 C 62.707031 163.777344 62.039062 163.476562 61.25 163.453125 Z M 61.25 163.453125 " fill-opacity="1" fill-rule="nonzero"/><path fill="#e0f5ff" d="M 12.390625 203.496094 C 11.804688 203.4375 11.253906 203.554688 10.738281 203.839844 C 10.40625 204.027344 10.121094 204.269531 9.882812 204.570312 C 9.648438 204.871094 9.476562 205.203125 9.375 205.570312 C 9.269531 205.9375 9.242188 206.308594 9.289062 206.6875 C 9.332031 207.066406 9.449219 207.421875 9.636719 207.753906 C 29.023438 242.238281 48.363281 276.730469 67.65625 311.226562 C 74.5 323.417969 81.351562 335.609375 88.207031 347.800781 C 88.390625 348.183594 88.640625 348.507812 88.957031 348.785156 C 89.277344 349.0625 89.636719 349.261719 90.035156 349.390625 C 90.4375 349.515625 90.847656 349.558594 91.265625 349.515625 C 91.6875 349.472656 92.078125 349.347656 92.445312 349.140625 C 92.8125 348.933594 93.125 348.660156 93.378906 348.324219 C 93.632812 347.992188 93.808594 347.617188 93.90625 347.210938 C 94.007812 346.800781 94.019531 346.390625 93.949219 345.976562 C 93.878906 345.558594 93.726562 345.175781 93.496094 344.824219 L 72.921875 308.269531 C 53.492188 273.839844 34.070312 239.398438 14.65625 204.941406 C 14.425781 204.527344 14.109375 204.191406 13.707031 203.933594 C 13.304688 203.675781 12.867188 203.53125 12.390625 203.496094 Z M 12.390625 203.496094 " fill-opacity="1" fill-rule="nonzero"/><path fill="#e0f5ff" d="M 73.984375 310.082031 C 73.402344 310 72.84375 310.082031 72.308594 310.328125 C 71.804688 310.558594 71.390625 310.898438 71.066406 311.347656 C 70.757812 311.777344 70.636719 312.246094 70.472656 312.714844 C 70.308594 313.183594 70.125 313.816406 69.941406 314.367188 C 69.757812 314.914062 69.554688 315.507812 69.371094 316.078125 C 69.1875 316.648438 68.921875 317.421875 68.71875 318.117188 C 66.269531 325.558594 63.859375 333.019531 61.433594 340.460938 C 61.277344 340.851562 61.203125 341.257812 61.214844 341.679688 C 61.226562 342.101562 61.324219 342.503906 61.503906 342.882812 C 61.683594 343.265625 61.929688 343.59375 62.246094 343.875 C 62.5625 344.152344 62.921875 344.355469 63.324219 344.484375 C 63.726562 344.613281 64.136719 344.65625 64.554688 344.613281 C 64.976562 344.574219 65.371094 344.449219 65.738281 344.246094 C 66.105469 344.039062 66.417969 343.769531 66.671875 343.433594 C 66.929688 343.097656 67.109375 342.726562 67.207031 342.316406 C 69.25 336.023438 71.277344 329.71875 73.289062 323.398438 C 73.941406 321.316406 74.617188 319.238281 75.269531 317.160156 L 75.453125 316.609375 L 76.003906 316.769531 L 82.105469 318.546875 C 88.1875 320.320312 94.25 322.132812 100.3125 323.925781 C 100.683594 324.058594 101.066406 324.113281 101.460938 324.085938 C 101.855469 324.0625 102.226562 323.960938 102.578125 323.78125 C 102.929688 323.601562 103.234375 323.359375 103.484375 323.058594 C 103.738281 322.753906 103.921875 322.414062 104.03125 322.035156 C 104.144531 321.65625 104.179688 321.273438 104.132812 320.878906 C 104.085938 320.488281 103.964844 320.121094 103.765625 319.78125 C 103.566406 319.4375 103.3125 319.148438 102.996094 318.914062 C 102.679688 318.679688 102.328125 318.515625 101.945312 318.421875 C 94.800781 316.300781 87.664062 314.167969 80.535156 312.019531 L 76.1875 310.695312 L 75.085938 310.371094 C 74.726562 310.246094 74.359375 310.152344 73.984375 310.082031 Z M 73.984375 310.082031 " fill-opacity="1" fill-rule="nonzero"/><path fill="#e0f5ff" d="M 56.414062 281.5625 C 56.164062 281.558594 55.917969 281.585938 55.675781 281.640625 C 55.453125 281.703125 55.234375 281.785156 55.023438 281.886719 C 54.8125 281.992188 54.613281 282.121094 54.433594 282.273438 C 53.675781 282.925781 53.472656 283.761719 53.1875 284.640625 C 53.042969 285.109375 52.882812 285.578125 52.738281 286.027344 L 52.25 287.515625 L 51.574219 289.53125 C 49.167969 296.851562 46.800781 304.191406 44.410156 311.550781 C 44.320312 311.925781 44.300781 312.300781 44.351562 312.683594 C 44.402344 313.066406 44.523438 313.421875 44.710938 313.757812 C 44.898438 314.09375 45.140625 314.382812 45.4375 314.628906 C 45.734375 314.871094 46.066406 315.050781 46.433594 315.167969 C 46.800781 315.289062 47.175781 315.332031 47.558594 315.308594 C 47.945312 315.285156 48.308594 315.191406 48.65625 315.027344 C 49.007812 314.863281 49.3125 314.640625 49.578125 314.363281 C 49.839844 314.082031 50.042969 313.765625 50.1875 313.40625 C 52.1875 307.210938 54.179688 300.996094 56.167969 294.773438 L 58.125 288.613281 L 58.308594 288.023438 L 58.675781 288.125 L 64.414062 289.59375 C 70.207031 291.082031 76.003906 292.609375 81.800781 294.140625 C 82.171875 294.238281 82.542969 294.261719 82.921875 294.210938 C 83.300781 294.15625 83.65625 294.035156 83.984375 293.84375 C 84.316406 293.652344 84.597656 293.402344 84.828125 293.101562 C 85.058594 292.796875 85.222656 292.460938 85.320312 292.089844 C 85.417969 291.722656 85.441406 291.347656 85.390625 290.96875 C 85.339844 290.59375 85.21875 290.238281 85.023438 289.910156 C 84.832031 289.578125 84.585938 289.296875 84.28125 289.066406 C 83.976562 288.835938 83.640625 288.671875 83.269531 288.574219 C 76.523438 286.792969 69.773438 285.007812 63.023438 283.210938 L 58.535156 282.007812 C 57.839844 281.824219 57.125 281.582031 56.414062 281.5625 Z M 56.414062 281.5625 " fill-opacity="1" fill-rule="nonzero"/><path fill="#e0f5ff" d="M 39.882812 251.9375 C 39.660156 251.9375 39.441406 251.972656 39.226562 252.039062 C 38.96875 252.113281 38.722656 252.222656 38.492188 252.363281 C 38.230469 252.507812 38 252.691406 37.800781 252.914062 C 37.167969 253.589844 36.984375 254.585938 36.71875 255.445312 C 36.574219 255.890625 36.433594 256.339844 36.308594 256.789062 C 36.1875 257.238281 36.023438 257.746094 35.859375 258.214844 C 35.699219 258.683594 35.472656 259.519531 35.269531 260.152344 C 33.105469 267.269531 30.984375 274.40625 28.839844 281.519531 C 28.742188 281.898438 28.722656 282.28125 28.773438 282.667969 C 28.828125 283.058594 28.949219 283.421875 29.140625 283.761719 C 29.335938 284.101562 29.582031 284.394531 29.890625 284.636719 C 30.195312 284.882812 30.535156 285.058594 30.910156 285.171875 C 31.285156 285.285156 31.667969 285.324219 32.054688 285.289062 C 32.445312 285.257812 32.816406 285.152344 33.164062 284.972656 C 33.511719 284.796875 33.816406 284.5625 34.074219 284.265625 C 34.332031 283.972656 34.527344 283.640625 34.65625 283.273438 C 36.472656 277.15625 38.308594 271.039062 40.105469 264.925781 L 41.882812 258.867188 C 41.902344 258.765625 41.941406 258.683594 41.960938 258.582031 L 42.308594 258.707031 L 48.289062 260.644531 L 66.046875 266.492188 C 66.414062 266.648438 66.800781 266.722656 67.203125 266.71875 C 67.601562 266.710938 67.984375 266.625 68.351562 266.457031 C 68.714844 266.292969 69.03125 266.058594 69.300781 265.761719 C 69.570312 265.464844 69.765625 265.125 69.890625 264.742188 C 70.015625 264.363281 70.058594 263.972656 70.023438 263.574219 C 69.984375 263.175781 69.867188 262.800781 69.675781 262.449219 C 69.480469 262.097656 69.222656 261.800781 68.902344 261.558594 C 68.585938 261.316406 68.230469 261.144531 67.839844 261.050781 L 46.332031 253.875 L 44.167969 253.140625 L 42.71875 252.652344 L 41.636719 252.285156 C 41.289062 252.140625 40.925781 252.039062 40.554688 251.976562 C 40.332031 251.933594 40.109375 251.917969 39.882812 251.9375 Z M 39.882812 251.9375 " fill-opacity="1" fill-rule="nonzero"/><path fill="#e0f5ff" d="M 22.085938 220.703125 C 21.574219 220.714844 21.105469 220.859375 20.675781 221.128906 C 20.421875 221.277344 20.199219 221.460938 20.003906 221.679688 C 19.371094 222.355469 19.167969 223.351562 18.921875 224.207031 C 18.777344 224.65625 18.636719 225.105469 18.511719 225.574219 C 18.390625 226.042969 18.207031 226.511719 18.0625 227.003906 C 17.921875 227.492188 17.675781 228.285156 17.472656 228.9375 C 15.308594 236.054688 13.1875 243.167969 11.042969 250.304688 C 10.957031 250.683594 10.941406 251.0625 11 251.441406 C 11.058594 251.824219 11.183594 252.183594 11.378906 252.515625 C 11.574219 252.851562 11.820312 253.136719 12.125 253.375 C 12.429688 253.613281 12.765625 253.789062 13.136719 253.898438 C 13.507812 254.011719 13.886719 254.046875 14.269531 254.015625 C 14.65625 253.980469 15.023438 253.878906 15.367188 253.707031 C 15.714844 253.53125 16.015625 253.300781 16.273438 253.015625 C 16.53125 252.726562 16.726562 252.402344 16.859375 252.039062 L 22.308594 233.6875 L 24.085938 227.632812 L 24.167969 227.367188 L 24.511719 227.472656 L 30.492188 229.429688 C 36.410156 231.34375 42.332031 233.300781 48.25 235.257812 C 48.617188 235.414062 49.003906 235.488281 49.40625 235.484375 C 49.808594 235.476562 50.191406 235.390625 50.554688 235.222656 C 50.921875 235.058594 51.238281 234.824219 51.503906 234.527344 C 51.773438 234.226562 51.96875 233.890625 52.09375 233.507812 C 52.21875 233.128906 52.265625 232.738281 52.226562 232.339844 C 52.1875 231.9375 52.074219 231.566406 51.878906 231.214844 C 51.683594 230.863281 51.425781 230.566406 51.109375 230.324219 C 50.789062 230.078125 50.433594 229.910156 50.042969 229.816406 L 28.535156 222.640625 L 26.371094 221.90625 L 24.921875 221.414062 L 23.839844 221.046875 C 23.492188 220.90625 23.128906 220.804688 22.757812 220.742188 C 22.535156 220.699219 22.3125 220.683594 22.085938 220.703125 Z M 22.085938 220.703125 " fill-opacity="1" fill-rule="nonzero"/><path fill="#e0f5ff" d="M 92.65625 217.296875 C 92.460938 217.289062 92.261719 217.304688 92.066406 217.339844 L 69.617188 221.394531 L 64.636719 222.292969 C 63.65625 222.457031 62.574219 222.515625 61.78125 223.167969 C 61.582031 223.332031 61.40625 223.515625 61.25 223.71875 C 61.09375 223.921875 60.964844 224.140625 60.859375 224.371094 C 60.453125 225.371094 60.71875 226.226562 60.921875 227.207031 L 61.230469 228.695312 L 61.535156 230.265625 C 61.675781 230.976562 61.839844 231.691406 61.984375 232.40625 C 63.574219 240.191406 65.207031 247.960938 66.820312 255.75 C 66.878906 256.164062 67.019531 256.554688 67.238281 256.914062 C 67.457031 257.269531 67.738281 257.570312 68.082031 257.8125 C 68.429688 258.054688 68.808594 258.21875 69.21875 258.304688 C 69.632812 258.386719 70.042969 258.386719 70.457031 258.300781 C 70.867188 258.214844 71.246094 258.050781 71.589844 257.808594 C 71.933594 257.5625 72.214844 257.261719 72.433594 256.902344 C 72.652344 256.542969 72.789062 256.15625 72.84375 255.738281 C 72.902344 255.320312 72.875 254.910156 72.757812 254.503906 C 71.371094 247.941406 70.003906 241.355469 68.597656 234.789062 L 67.1875 228.265625 C 67.164062 228.113281 67.128906 227.964844 67.085938 227.816406 L 67.492188 227.734375 L 73.839844 226.53125 L 93.105469 222.984375 C 93.449219 222.914062 93.769531 222.785156 94.066406 222.597656 C 94.363281 222.410156 94.617188 222.179688 94.828125 221.898438 C 95.039062 221.617188 95.195312 221.308594 95.292969 220.972656 C 95.390625 220.636719 95.425781 220.292969 95.398438 219.941406 C 95.371094 219.59375 95.28125 219.261719 95.132812 218.941406 C 94.984375 218.625 94.78125 218.34375 94.53125 218.101562 C 94.277344 217.859375 93.988281 217.667969 93.667969 217.527344 C 93.34375 217.390625 93.007812 217.3125 92.65625 217.296875 Z M 92.65625 217.296875 " fill-opacity="1" fill-rule="nonzero"/><path fill="#e0f5ff" d="M 73.148438 117.90625 C 72.570312 117.957031 72.050781 118.164062 71.597656 118.527344 C 71.144531 118.890625 70.832031 119.347656 70.65625 119.902344 C 68.234375 127.460938 65.800781 135.015625 63.351562 142.574219 C 63.105469 143.347656 62.859375 144.105469 62.597656 144.859375 L 62.105469 146.386719 L 61.738281 147.527344 C 61.597656 147.890625 61.492188 148.265625 61.433594 148.648438 C 61.367188 149.097656 61.394531 149.539062 61.515625 149.976562 C 61.582031 150.234375 61.683594 150.480469 61.820312 150.710938 C 61.976562 150.957031 62.160156 151.179688 62.371094 151.382812 C 63.023438 151.992188 63.941406 152.175781 64.78125 152.421875 L 66.1875 152.851562 L 67.882812 153.339844 L 69.902344 153.953125 L 92.1875 160.558594 C 92.5625 160.636719 92.941406 160.644531 93.316406 160.582031 C 93.695312 160.519531 94.050781 160.390625 94.378906 160.195312 C 94.707031 160 94.988281 159.75 95.222656 159.449219 C 95.457031 159.144531 95.628906 158.8125 95.738281 158.445312 C 95.847656 158.078125 95.882812 157.703125 95.851562 157.320312 C 95.816406 156.941406 95.714844 156.578125 95.546875 156.234375 C 95.375 155.894531 95.148438 155.59375 94.867188 155.335938 C 94.582031 155.078125 94.261719 154.882812 93.902344 154.746094 L 74.757812 149.160156 L 68.453125 147.324219 L 68.023438 147.203125 L 68.207031 146.652344 C 68.863281 144.550781 69.515625 142.453125 70.1875 140.351562 C 72.148438 134.113281 74.132812 127.875 76.148438 121.636719 C 76.257812 121.273438 76.296875 120.902344 76.265625 120.523438 C 76.230469 120.144531 76.125 119.785156 75.949219 119.445312 C 75.773438 119.109375 75.539062 118.816406 75.25 118.570312 C 74.957031 118.324219 74.632812 118.144531 74.269531 118.027344 C 73.902344 117.925781 73.527344 117.886719 73.148438 117.90625 Z M 73.148438 117.90625 " fill-opacity="1" fill-rule="nonzero"/><path fill="#e0f5ff" d="M -1.324219 258.707031 C -1.574219 258.714844 -1.820312 258.757812 -2.058594 258.828125 C -2.976562 259.113281 -3.589844 259.867188 -4.222656 260.5 L -5.285156 261.558594 L -6.527344 262.804688 L -8.019531 264.3125 C -13.527344 269.832031 -19.011719 275.371094 -24.46875 280.929688 C -24.75 281.214844 -24.96875 281.542969 -25.121094 281.914062 C -25.273438 282.285156 -25.347656 282.671875 -25.34375 283.074219 C -25.34375 283.476562 -25.265625 283.859375 -25.109375 284.230469 C -24.953125 284.601562 -24.734375 284.929688 -24.445312 285.210938 C -24.160156 285.492188 -23.832031 285.710938 -23.460938 285.863281 C -23.089844 286.015625 -22.703125 286.089844 -22.300781 286.085938 C -21.898438 286.085938 -21.511719 286.007812 -21.140625 285.851562 C -20.769531 285.695312 -20.445312 285.476562 -20.160156 285.191406 L -6.101562 270.878906 C -4.570312 269.308594 -3.019531 267.738281 -1.488281 266.148438 L -1.203125 265.882812 L -0.957031 266.148438 L 3.492188 270.898438 C 7.980469 275.6875 12.453125 280.519531 16.921875 285.332031 C 17.175781 285.636719 17.476562 285.875 17.828125 286.054688 C 18.179688 286.230469 18.550781 286.332031 18.945312 286.359375 C 19.335938 286.382812 19.71875 286.332031 20.089844 286.199219 C 20.460938 286.070312 20.792969 285.871094 21.082031 285.601562 C 21.371094 285.335938 21.597656 285.023438 21.757812 284.664062 C 21.917969 284.304688 22 283.929688 22.007812 283.535156 C 22.011719 283.140625 21.941406 282.761719 21.792969 282.398438 C 21.640625 282.035156 21.425781 281.714844 21.144531 281.4375 C 15.839844 275.714844 10.539062 269.972656 5.246094 264.210938 L 3.675781 262.496094 C 3.269531 262.050781 2.839844 261.601562 2.429688 261.132812 L 1.472656 260.113281 C 1.230469 259.808594 0.957031 259.539062 0.65625 259.296875 C 0.300781 259.027344 -0.09375 258.851562 -0.527344 258.765625 C -0.789062 258.707031 -1.054688 258.683594 -1.324219 258.707031 Z M -1.324219 258.707031 " fill-opacity="1" fill-rule="nonzero"/><path stroke-linecap="butt" transform="matrix(0.204087, 0, 0, 0.203882, -203.08425, -14.903766)" fill="none" stroke-linejoin="round" d="M 915.502886 1013.902051 C 915.502886 968.09198 954.204248 930.999426 1001.901476 930.999426 C 1049.598704 930.999426 1088.300066 968.09198 1088.300066 1013.902051 C 1088.300066 1059.692962 1049.598704 1096.900472 1001.901476 1096.900472 C 954.204248 1096.900472 915.502886 1059.692962 915.502886 1013.902051 Z M 915.502886 1013.902051 " stroke="#98a6c0" stroke-width="28" stroke-opacity="1" stroke-miterlimit="4"/></svg>