<svg xmlns="http://www.w3.org/2000/svg" xmlns:xlink="http://www.w3.org/1999/xlink" width="500" zoomAndPan="magnify" viewBox="0 0 375 374.999991" height="500" preserveAspectRatio="xMidYMid meet" version="1.0"><defs><clipPath id="a5fd92c3c5"><path d="M 187.5 186 L 361 186 L 361 194 L 187.5 194 Z M 187.5 186 " clip-rule="nonzero"/></clipPath></defs><path fill="#e0f5ff" d="M 371.535156 0 C 371.132812 0.00390625 370.75 0.0859375 370.378906 0.246094 C 370.011719 0.402344 369.683594 0.625 369.40625 0.910156 C 369.125 1.199219 368.90625 1.527344 368.757812 1.898438 C 368.605469 2.269531 368.53125 2.65625 368.535156 3.058594 C 368.644531 17.738281 368.761719 32.410156 368.882812 47.078125 C 369.113281 71.867188 369.34375 96.660156 369.578125 121.453125 C 369.710938 138.414062 369.847656 155.371094 369.984375 172.320312 C 369.953125 172.722656 370.003906 173.113281 370.136719 173.492188 C 370.269531 173.871094 370.476562 174.207031 370.75 174.503906 C 371.023438 174.796875 371.347656 175.023438 371.714844 175.183594 C 372.085938 175.339844 372.472656 175.417969 372.875 175.417969 C 373.277344 175.414062 373.660156 175.328125 374.027344 175.164062 C 374.398438 175 374.714844 174.769531 374.984375 174.472656 C 375.257812 174.175781 375.457031 173.835938 375.582031 173.453125 C 375.710938 173.070312 375.757812 172.679688 375.71875 172.28125 C 375.597656 155.316406 375.480469 138.359375 375.371094 121.410156 C 375.210938 96.621094 375.050781 71.828125 374.902344 47.035156 C 374.820312 32.355469 374.71875 17.683594 374.597656 3.015625 C 374.59375 2.613281 374.515625 2.226562 374.359375 1.855469 C 374.199219 1.484375 373.980469 1.160156 373.691406 0.875 C 373.40625 0.59375 373.074219 0.375 372.699219 0.222656 C 372.328125 0.0703125 371.9375 -0.00390625 371.535156 0 Z M 371.535156 0 " fill-opacity="1" fill-rule="nonzero"/><path fill="#e0f5ff" d="M 214.285156 90.585938 C 213.960938 90.597656 213.644531 90.660156 213.339844 90.773438 C 213.035156 90.890625 212.753906 91.046875 212.5 91.253906 C 212.246094 91.457031 212.027344 91.695312 211.851562 91.96875 C 211.671875 92.242188 211.542969 92.539062 211.460938 92.851562 C 211.378906 93.167969 211.347656 93.488281 211.371094 93.816406 C 211.390625 94.140625 211.460938 94.453125 211.582031 94.757812 C 211.707031 95.058594 211.871094 95.335938 212.082031 95.582031 C 212.292969 95.832031 212.539062 96.042969 212.816406 96.210938 L 249.980469 118.964844 L 313.003906 157.457031 L 355.800781 183.65625 C 356.125 183.828125 356.46875 183.933594 356.832031 183.972656 C 357.195312 184.011719 357.554688 183.984375 357.90625 183.886719 C 358.257812 183.792969 358.582031 183.632812 358.875 183.414062 C 359.167969 183.195312 359.410156 182.929688 359.601562 182.617188 C 359.792969 182.304688 359.917969 181.96875 359.980469 181.609375 C 360.042969 181.25 360.039062 180.890625 359.964844 180.53125 C 359.890625 180.175781 359.753906 179.84375 359.550781 179.539062 C 359.351562 179.230469 359.101562 178.972656 358.800781 178.761719 L 316.042969 152.523438 C 295.0625 139.640625 274.097656 126.738281 253.144531 113.828125 L 216 91.035156 C 215.472656 90.714844 214.902344 90.566406 214.285156 90.585938 Z M 214.285156 90.585938 " fill-opacity="1" fill-rule="nonzero"/><path fill="#e0f5ff" d="M 357.105469 195.808594 C 356.527344 195.769531 355.980469 195.890625 355.472656 196.175781 C 320.097656 215.953125 284.722656 235.6875 249.347656 255.382812 L 211.835938 276.339844 C 211.503906 276.546875 211.222656 276.808594 210.988281 277.121094 C 210.757812 277.4375 210.59375 277.78125 210.492188 278.160156 C 210.394531 278.539062 210.371094 278.921875 210.421875 279.3125 C 210.46875 279.699219 210.589844 280.0625 210.78125 280.40625 C 210.972656 280.746094 211.21875 281.039062 211.523438 281.285156 C 211.828125 281.53125 212.167969 281.714844 212.539062 281.828125 C 212.914062 281.945312 213.296875 281.984375 213.6875 281.953125 C 214.078125 281.921875 214.445312 281.816406 214.796875 281.640625 L 252.289062 260.644531 C 287.621094 240.824219 322.949219 221.007812 358.269531 201.191406 C 358.601562 201.003906 358.886719 200.761719 359.125 200.460938 C 359.359375 200.160156 359.53125 199.828125 359.632812 199.460938 C 359.734375 199.09375 359.765625 198.722656 359.71875 198.34375 C 359.675781 197.964844 359.558594 197.609375 359.371094 197.277344 C 359.136719 196.859375 358.820312 196.523438 358.417969 196.265625 C 358.019531 196.003906 357.582031 195.851562 357.105469 195.808594 Z M 357.105469 195.808594 " fill-opacity="1" fill-rule="nonzero"/><path fill="#e0f5ff" d="M 373.679688 205.839844 C 373.296875 205.835938 372.933594 205.90625 372.582031 206.046875 C 372.226562 206.191406 371.917969 206.394531 371.644531 206.660156 C 371.375 206.925781 371.164062 207.230469 371.011719 207.582031 C 370.863281 207.929688 370.785156 208.292969 370.78125 208.671875 C 370.25 248.878906 369.679688 289.078125 369.066406 329.269531 C 368.863281 343.488281 368.664062 357.695312 368.472656 371.902344 C 368.46875 372.304688 368.542969 372.691406 368.691406 373.066406 C 368.839844 373.4375 369.058594 373.769531 369.339844 374.058594 C 369.621094 374.347656 369.945312 374.570312 370.316406 374.726562 C 370.683594 374.886719 371.070312 374.96875 371.472656 374.972656 C 371.878906 374.980469 372.265625 374.90625 372.640625 374.757812 C 373.015625 374.609375 373.347656 374.394531 373.632812 374.113281 C 373.921875 373.835938 374.148438 373.511719 374.308594 373.140625 C 374.46875 372.769531 374.550781 372.386719 374.554688 371.984375 C 374.71875 357.773438 374.921875 343.5625 375.085938 329.351562 C 375.578125 289.144531 376.058594 248.945312 376.535156 208.753906 C 376.539062 208.371094 376.46875 208.003906 376.324219 207.648438 C 376.183594 207.296875 375.976562 206.980469 375.707031 206.707031 C 375.441406 206.4375 375.132812 206.222656 374.78125 206.074219 C 374.429688 205.921875 374.0625 205.84375 373.679688 205.839844 Z M 373.679688 205.839844 " fill-opacity="1" fill-rule="nonzero"/><path fill="#e0f5ff" d="M 393.269531 18.023438 C 392.429688 17.996094 391.710938 18.273438 391.109375 18.859375 L 376.128906 33.234375 L 371.027344 38.144531 L 370.65625 38.492188 L 370.25 38.085938 L 365.617188 33.375 L 351.65625 19.042969 C 351.386719 18.796875 351.082031 18.609375 350.738281 18.480469 C 350.394531 18.351562 350.039062 18.289062 349.675781 18.292969 C 349.308594 18.300781 348.957031 18.371094 348.617188 18.511719 C 348.28125 18.652344 347.980469 18.851562 347.714844 19.105469 C 347.453125 19.359375 347.246094 19.652344 347.097656 19.988281 C 346.945312 20.320312 346.863281 20.671875 346.84375 21.035156 C 346.828125 21.402344 346.878906 21.757812 347 22.101562 C 347.117188 22.449219 347.296875 22.761719 347.535156 23.039062 C 352.941406 28.625 358.351562 34.191406 363.738281 39.796875 L 367.332031 43.527344 C 368.023438 44.242188 368.699219 45.117188 369.679688 45.425781 C 369.917969 45.503906 370.160156 45.546875 370.414062 45.546875 C 370.660156 45.5625 370.90625 45.550781 371.148438 45.507812 C 371.566406 45.441406 371.945312 45.285156 372.289062 45.039062 C 372.605469 44.8125 372.898438 44.5625 373.167969 44.28125 L 373.882812 43.609375 L 377.597656 40.082031 L 395.3125 23.242188 C 395.601562 22.960938 395.824219 22.636719 395.984375 22.265625 C 396.144531 21.898438 396.230469 21.511719 396.238281 21.109375 C 396.246094 20.707031 396.175781 20.316406 396.03125 19.941406 C 395.882812 19.566406 395.671875 19.230469 395.394531 18.941406 C 394.816406 18.335938 394.105469 18.03125 393.269531 18.023438 Z M 393.269531 18.023438 " fill-opacity="1" fill-rule="nonzero"/><path fill="#e0f5ff" d="M 240.878906 81.347656 C 240.671875 81.347656 240.46875 81.371094 240.265625 81.410156 C 239.871094 81.488281 239.507812 81.640625 239.175781 81.863281 C 238.839844 82.085938 238.5625 82.367188 238.339844 82.703125 C 238.117188 83.035156 237.96875 83.402344 237.890625 83.796875 C 237.816406 84.191406 237.820312 84.585938 237.898438 84.976562 L 242.125 105.449219 C 242.613281 107.773438 243.105469 110.117188 243.574219 112.441406 L 243.695312 113.011719 L 243.105469 113.15625 L 236.734375 114.664062 C 230.289062 116.210938 223.816406 117.722656 217.367188 119.230469 C 216.996094 119.316406 216.65625 119.46875 216.34375 119.6875 C 216.035156 119.910156 215.777344 120.183594 215.578125 120.507812 C 215.375 120.828125 215.246094 121.179688 215.183594 121.554688 C 215.125 121.933594 215.136719 122.304688 215.226562 122.675781 C 215.316406 123.042969 215.472656 123.382812 215.695312 123.6875 C 215.917969 123.996094 216.191406 124.25 216.511719 124.449219 C 216.835938 124.652344 217.183594 124.78125 217.558594 124.847656 C 217.933594 124.910156 218.304688 124.898438 218.675781 124.816406 C 226.183594 123.0625 233.710938 121.324219 241.246094 119.597656 L 246.246094 118.457031 C 247.226562 118.230469 248.328125 118.109375 249.082031 117.414062 C 249.261719 117.253906 249.425781 117.078125 249.574219 116.886719 C 249.710938 116.683594 249.820312 116.464844 249.898438 116.234375 C 250.0625 115.855469 250.128906 115.460938 250.105469 115.050781 C 250.085938 114.664062 250.023438 114.28125 249.921875 113.910156 L 249.738281 112.929688 C 249.390625 111.257812 249.0625 109.566406 248.714844 107.875 C 247.125 99.839844 245.503906 91.808594 243.859375 83.773438 C 243.789062 83.433594 243.664062 83.113281 243.480469 82.8125 C 243.300781 82.511719 243.074219 82.253906 242.800781 82.03125 C 242.53125 81.8125 242.230469 81.640625 241.898438 81.523438 C 241.570312 81.40625 241.230469 81.347656 240.878906 81.347656 Z M 240.878906 81.347656 " fill-opacity="1" fill-rule="nonzero"/><path fill="#e0f5ff" d="M 217.960938 248.042969 C 217.609375 248.070312 217.277344 248.160156 216.957031 248.304688 C 216.636719 248.449219 216.351562 248.644531 216.101562 248.890625 C 215.851562 249.136719 215.648438 249.417969 215.496094 249.730469 C 215.339844 250.046875 215.246094 250.378906 215.207031 250.726562 C 215.171875 251.078125 215.195312 251.421875 215.277344 251.761719 C 215.359375 252.101562 215.496094 252.417969 215.691406 252.710938 C 215.882812 253.003906 216.121094 253.253906 216.402344 253.464844 C 216.683594 253.675781 216.992188 253.832031 217.328125 253.933594 C 223.898438 256.042969 230.464844 258.121094 237.023438 260.171875 L 243.757812 262.292969 L 244.265625 262.457031 L 244.082031 263.109375 C 243.492188 265.230469 242.898438 267.351562 242.289062 269.492188 C 240.476562 275.933594 238.640625 282.382812 236.777344 288.839844 C 236.691406 289.199219 236.675781 289.5625 236.730469 289.929688 C 236.785156 290.296875 236.90625 290.636719 237.09375 290.957031 C 237.28125 291.277344 237.523438 291.550781 237.816406 291.777344 C 238.109375 292.003906 238.433594 292.167969 238.789062 292.269531 C 239.148438 292.371094 239.507812 292.398438 239.878906 292.363281 C 240.246094 292.324219 240.59375 292.21875 240.921875 292.042969 C 241.25 291.871094 241.535156 291.644531 241.773438 291.359375 C 242.011719 291.078125 242.191406 290.761719 242.308594 290.410156 C 244.472656 282.90625 246.613281 275.402344 248.796875 267.902344 L 250.265625 262.90625 C 250.53125 261.949219 250.960938 260.929688 250.757812 259.929688 C 250.707031 259.695312 250.625 259.46875 250.511719 259.257812 C 250.414062 259.03125 250.285156 258.828125 250.125 258.644531 C 249.871094 258.3125 249.558594 258.054688 249.1875 257.871094 C 248.832031 257.699219 248.464844 257.5625 248.082031 257.460938 L 247.164062 257.15625 L 242.308594 255.585938 L 219.164062 248.164062 C 218.769531 248.042969 218.371094 248 217.960938 248.042969 Z M 217.960938 248.042969 " fill-opacity="1" fill-rule="nonzero"/><path fill="#e0f5ff" d="M 373.964844 329.410156 C 373.710938 329.394531 373.460938 329.40625 373.210938 329.453125 C 372.800781 329.535156 372.425781 329.699219 372.085938 329.941406 C 371.769531 330.167969 371.476562 330.417969 371.210938 330.695312 C 370.964844 330.921875 370.738281 331.144531 370.515625 331.390625 L 366.800781 334.9375 L 349.230469 351.921875 C 348.917969 352.195312 348.675781 352.523438 348.5 352.898438 C 348.324219 353.273438 348.230469 353.667969 348.21875 354.082031 C 348.203125 354.496094 348.269531 354.898438 348.421875 355.28125 C 348.570312 355.667969 348.789062 356.011719 349.082031 356.308594 C 349.371094 356.605469 349.707031 356.832031 350.089844 356.992188 C 350.472656 357.148438 350.871094 357.226562 351.285156 357.222656 C 351.703125 357.21875 352.097656 357.132812 352.480469 356.964844 C 352.859375 356.800781 353.191406 356.566406 353.472656 356.261719 L 368.351562 341.789062 L 373.414062 336.8125 L 373.761719 336.464844 L 374.1875 336.894531 L 378.820312 341.5625 C 383.535156 346.273438 388.210938 351.023438 392.902344 355.773438 C 393.164062 356.074219 393.472656 356.308594 393.832031 356.480469 C 394.191406 356.648438 394.570312 356.742188 394.96875 356.757812 C 395.363281 356.773438 395.746094 356.707031 396.117188 356.5625 C 396.488281 356.417969 396.816406 356.207031 397.097656 355.929688 C 397.378906 355.648438 397.59375 355.324219 397.742188 354.957031 C 397.890625 354.585938 397.960938 354.207031 397.949219 353.808594 C 397.9375 353.410156 397.847656 353.03125 397.683594 352.671875 C 397.515625 352.3125 397.28125 352 396.984375 351.738281 C 391.53125 346.21875 386.085938 340.679688 380.660156 335.121094 L 377.046875 331.410156 C 376.351562 330.71875 375.679688 329.839844 374.679688 329.535156 C 374.445312 329.472656 374.207031 329.429688 373.964844 329.410156 Z M 373.964844 329.410156 " fill-opacity="1" fill-rule="nonzero"/><path fill="#e0f5ff" d="M 394.230469 53.375 C 393.394531 53.359375 392.671875 53.636719 392.066406 54.210938 L 377.3125 68.382812 L 372.269531 73.214844 L 371.882812 73.601562 L 371.535156 73.273438 L 367.066406 68.992188 C 362.535156 64.671875 358.046875 60.328125 353.535156 55.984375 C 353.257812 55.746094 352.945312 55.570312 352.597656 55.449219 C 352.253906 55.332031 351.894531 55.28125 351.53125 55.296875 C 351.164062 55.3125 350.816406 55.398438 350.480469 55.546875 C 350.148438 55.699219 349.851562 55.90625 349.597656 56.167969 C 349.34375 56.429688 349.144531 56.730469 349.003906 57.066406 C 348.863281 57.40625 348.792969 57.757812 348.785156 58.125 C 348.78125 58.488281 348.839844 58.84375 348.972656 59.183594 C 349.101562 59.527344 349.289062 59.832031 349.535156 60.105469 C 354.839844 65.230469 360.132812 70.359375 365.414062 75.496094 L 368.71875 78.71875 C 369.433594 79.410156 370.105469 80.226562 371.105469 80.492188 C 371.339844 80.558594 371.578125 80.59375 371.820312 80.59375 C 372.0625 80.597656 372.300781 80.570312 372.535156 80.511719 C 372.917969 80.433594 373.273438 80.28125 373.597656 80.0625 C 373.839844 79.894531 374.066406 79.707031 374.269531 79.492188 L 375.148438 78.65625 L 378.984375 75.007812 C 384.765625 69.570312 390.53125 64.101562 396.269531 58.59375 C 396.558594 58.316406 396.785156 57.992188 396.945312 57.625 C 397.105469 57.257812 397.1875 56.871094 397.195312 56.472656 C 397.203125 56.070312 397.132812 55.683594 396.988281 55.308594 C 396.84375 54.9375 396.628906 54.605469 396.351562 54.3125 C 395.777344 53.703125 395.070312 53.390625 394.230469 53.375 Z M 394.230469 53.375 " fill-opacity="1" fill-rule="nonzero"/><path fill="#e0f5ff" d="M 271.105469 99.046875 C 270.898438 99.039062 270.695312 99.050781 270.492188 99.085938 C 270.09375 99.164062 269.730469 99.316406 269.394531 99.542969 C 269.058594 99.765625 268.78125 100.046875 268.558594 100.386719 C 268.335938 100.722656 268.1875 101.089844 268.109375 101.488281 C 268.035156 101.882812 268.039062 102.28125 268.125 102.675781 C 269.484375 109.402344 270.867188 116.125 272.269531 122.839844 C 272.738281 125.144531 273.226562 127.425781 273.695312 129.730469 C 273.738281 129.933594 273.796875 130.136719 273.839844 130.339844 L 273.347656 130.484375 L 267.410156 132.09375 C 261.410156 133.746094 255.390625 135.335938 249.390625 136.96875 C 249.023438 137.066406 248.6875 137.230469 248.386719 137.460938 C 248.085938 137.6875 247.839844 137.96875 247.648438 138.296875 C 247.460938 138.625 247.339844 138.976562 247.289062 139.351562 C 247.238281 139.726562 247.261719 140.097656 247.359375 140.464844 C 247.457031 140.832031 247.621094 141.164062 247.851562 141.464844 C 248.082031 141.765625 248.359375 142.011719 248.6875 142.203125 C 249.015625 142.394531 249.367188 142.511719 249.746094 142.5625 C 250.121094 142.613281 250.492188 142.589844 250.859375 142.492188 C 257.878906 140.636719 264.878906 138.761719 271.902344 136.925781 L 276.574219 135.703125 C 277.511719 135.4375 278.554688 135.296875 279.289062 134.5625 C 279.460938 134.40625 279.609375 134.226562 279.738281 134.03125 C 279.867188 133.835938 279.96875 133.625 280.042969 133.398438 C 280.179688 133.03125 280.234375 132.652344 280.207031 132.257812 C 280.195312 131.96875 280.15625 131.683594 280.085938 131.402344 L 279.839844 130.199219 L 278.796875 124.980469 C 277.246094 117.136719 275.667969 109.292969 274.0625 101.453125 C 273.992188 101.113281 273.867188 100.792969 273.6875 100.496094 C 273.507812 100.199219 273.28125 99.941406 273.011719 99.722656 C 272.742188 99.503906 272.445312 99.335938 272.117188 99.21875 C 271.789062 99.105469 271.453125 99.046875 271.105469 99.046875 Z M 271.105469 99.046875 " fill-opacity="1" fill-rule="nonzero"/><path fill="#e0f5ff" d="M 247.941406 229.898438 C 247.59375 229.929688 247.261719 230.019531 246.945312 230.167969 C 246.625 230.316406 246.34375 230.511719 246.09375 230.757812 C 245.847656 231.003906 245.644531 231.28125 245.492188 231.597656 C 245.339844 231.910156 245.246094 232.242188 245.207031 232.589844 C 245.167969 232.933594 245.1875 233.277344 245.269531 233.617188 C 245.351562 233.957031 245.484375 234.273438 245.675781 234.566406 C 245.863281 234.863281 246.097656 235.113281 246.375 235.328125 C 246.652344 235.542969 246.957031 235.703125 247.289062 235.808594 L 266.695312 241.96875 L 273.308594 244.046875 L 273.878906 244.230469 L 273.757812 244.761719 C 273.246094 246.777344 272.757812 248.796875 272.246094 250.796875 C 270.738281 256.910156 269.207031 263.019531 267.65625 269.125 C 267.539062 269.5 267.5 269.886719 267.542969 270.277344 C 267.582031 270.671875 267.699219 271.039062 267.890625 271.382812 C 268.085938 271.726562 268.339844 272.019531 268.652344 272.261719 C 268.964844 272.5 269.316406 272.667969 269.699219 272.765625 C 270.082031 272.863281 270.46875 272.878906 270.859375 272.816406 C 271.246094 272.753906 271.609375 272.617188 271.945312 272.40625 C 272.277344 272.195312 272.554688 271.925781 272.777344 271.601562 C 273 271.273438 273.152344 270.917969 273.226562 270.53125 C 275.023438 263.410156 276.839844 256.300781 278.675781 249.203125 C 279.0625 247.613281 279.472656 246.042969 279.878906 244.476562 C 280.125 243.515625 280.492188 242.539062 280.246094 241.558594 C 280.1875 241.328125 280.105469 241.101562 280.003906 240.886719 C 279.886719 240.683594 279.75 240.492188 279.59375 240.316406 C 279.339844 240.015625 279.03125 239.777344 278.675781 239.601562 C 278.339844 239.4375 277.996094 239.308594 277.636719 239.214844 L 276.71875 238.910156 L 271.695312 237.296875 C 264.1875 234.851562 256.660156 232.433594 249.125 230.039062 C 248.738281 229.921875 248.34375 229.875 247.941406 229.898438 Z M 247.941406 229.898438 " fill-opacity="1" fill-rule="nonzero"/><path fill="#e0f5ff" d="M 372.332031 294.386719 C 372.0625 294.386719 371.796875 294.421875 371.535156 294.488281 C 371.152344 294.5625 370.796875 294.714844 370.472656 294.933594 C 370.25 295.109375 370.039062 295.300781 369.839844 295.507812 L 368.964844 296.34375 L 365.3125 299.847656 C 359.542969 305.421875 353.773438 310.996094 348.003906 316.566406 C 347.753906 316.855469 347.5625 317.175781 347.433594 317.535156 C 347.304688 317.894531 347.242188 318.265625 347.253906 318.648438 C 347.265625 319.027344 347.34375 319.394531 347.492188 319.746094 C 347.640625 320.097656 347.847656 320.410156 348.113281 320.683594 C 348.378906 320.957031 348.6875 321.171875 349.035156 321.332031 C 349.382812 321.488281 349.746094 321.578125 350.125 321.601562 C 350.507812 321.621094 350.878906 321.570312 351.242188 321.453125 C 351.605469 321.332031 351.933594 321.152344 352.230469 320.910156 L 366.882812 306.636719 L 371.882812 301.765625 L 372.269531 301.378906 L 372.699219 301.765625 L 377.25 306.046875 L 390.761719 318.851562 C 391.035156 319.113281 391.347656 319.316406 391.703125 319.453125 C 392.054688 319.589844 392.421875 319.65625 392.800781 319.644531 C 393.183594 319.636719 393.546875 319.554688 393.890625 319.398438 C 394.238281 319.242188 394.542969 319.027344 394.800781 318.75 C 395.066406 318.472656 395.265625 318.160156 395.402344 317.804688 C 395.542969 317.449219 395.605469 317.082031 395.601562 316.703125 C 395.59375 316.324219 395.511719 315.957031 395.359375 315.609375 C 395.207031 315.261719 394.992188 314.957031 394.71875 314.691406 C 389.34375 309.59375 383.992188 304.484375 378.660156 299.359375 L 377.003906 297.789062 L 375.921875 296.730469 L 374.820312 295.691406 C 374.546875 295.410156 374.253906 295.152344 373.945312 294.914062 C 373.453125 294.59375 372.917969 294.414062 372.332031 294.386719 Z M 372.332031 294.386719 " fill-opacity="1" fill-rule="nonzero"/><path fill="#e0f5ff" d="M 351.984375 88.566406 C 351.195312 88.542969 350.507812 88.792969 349.921875 89.320312 C 349.644531 89.578125 349.425781 89.878906 349.265625 90.226562 C 349.105469 90.570312 349.015625 90.933594 349 91.3125 C 348.980469 91.691406 349.039062 92.058594 349.164062 92.417969 C 349.292969 92.773438 349.484375 93.09375 349.738281 93.378906 C 355.003906 99.140625 360.257812 104.917969 365.496094 110.707031 L 367.046875 112.441406 C 367.472656 112.890625 367.882812 113.359375 368.289062 113.808594 L 369.230469 114.847656 C 369.476562 115.144531 369.75 115.414062 370.046875 115.664062 C 370.398438 115.933594 370.792969 116.117188 371.230469 116.210938 C 371.492188 116.273438 371.757812 116.292969 372.027344 116.273438 C 372.277344 116.273438 372.523438 116.230469 372.761719 116.152344 C 373.679688 115.886719 374.289062 115.152344 374.945312 114.5 L 376.003906 113.441406 L 377.269531 112.214844 C 377.761719 111.707031 378.269531 111.21875 378.78125 110.707031 C 384.316406 105.242188 389.84375 99.753906 395.351562 94.234375 C 395.660156 93.953125 395.898438 93.625 396.066406 93.246094 C 396.238281 92.867188 396.328125 92.472656 396.335938 92.058594 C 396.34375 91.644531 396.273438 91.242188 396.117188 90.859375 C 395.960938 90.472656 395.734375 90.136719 395.441406 89.84375 C 395.148438 89.550781 394.808594 89.328125 394.421875 89.171875 C 394.035156 89.019531 393.636719 88.949219 393.21875 88.957031 C 392.804688 88.96875 392.410156 89.0625 392.03125 89.234375 C 391.652344 89.40625 391.324219 89.644531 391.046875 89.953125 C 386.324219 94.667969 381.609375 99.398438 376.902344 104.144531 L 372.25 108.832031 L 371.964844 109.097656 L 371.71875 108.832031 L 367.3125 104.039062 C 362.863281 99.214844 358.417969 94.371094 353.984375 89.503906 C 353.445312 88.917969 352.78125 88.605469 351.984375 88.566406 Z M 351.984375 88.566406 " fill-opacity="1" fill-rule="nonzero"/><path fill="#e0f5ff" d="M 278.695312 26.199219 C 278.074219 26.152344 277.496094 26.289062 276.960938 26.605469 C 276.613281 26.808594 276.316406 27.066406 276.070312 27.386719 C 275.828125 27.707031 275.652344 28.058594 275.550781 28.449219 C 275.449219 28.839844 275.425781 29.230469 275.484375 29.628906 C 275.542969 30.027344 275.671875 30.398438 275.878906 30.746094 L 297.960938 68.585938 L 335.433594 132.542969 C 343.992188 147.140625 352.523438 161.746094 361.023438 176.359375 C 361.203125 176.710938 361.445312 177.015625 361.75 177.269531 C 362.054688 177.527344 362.398438 177.710938 362.777344 177.820312 C 363.160156 177.933594 363.546875 177.96875 363.941406 177.917969 C 364.335938 177.871094 364.703125 177.746094 365.046875 177.546875 C 365.390625 177.347656 365.679688 177.085938 365.914062 176.765625 C 366.148438 176.449219 366.3125 176.09375 366.402344 175.707031 C 366.488281 175.320312 366.496094 174.933594 366.425781 174.542969 C 366.351562 174.152344 366.207031 173.792969 365.984375 173.460938 L 340.433594 129.628906 L 303.1875 65.546875 L 281.125 27.6875 C 280.867188 27.253906 280.523438 26.90625 280.09375 26.644531 C 279.664062 26.378906 279.199219 26.230469 278.695312 26.199219 Z M 278.695312 26.199219 " fill-opacity="1" fill-rule="nonzero"/><path fill="#e0f5ff" d="M 306.371094 30.746094 C 306.023438 30.71875 305.683594 30.75 305.347656 30.84375 C 305.015625 30.933594 304.703125 31.074219 304.417969 31.273438 C 304.132812 31.46875 303.886719 31.707031 303.683594 31.988281 C 303.480469 32.269531 303.328125 32.574219 303.226562 32.90625 C 301.269531 39.609375 299.316406 46.308594 297.371094 53.007812 C 296.738281 55.230469 296.105469 57.433594 295.453125 59.65625 C 295.394531 59.890625 295.328125 60.121094 295.246094 60.347656 L 294.695312 60.207031 L 288.371094 58.492188 L 269.207031 53.214844 C 268.832031 53.082031 268.445312 53.03125 268.050781 53.058594 C 267.652344 53.089844 267.28125 53.195312 266.925781 53.378906 C 266.574219 53.5625 266.273438 53.808594 266.023438 54.117188 C 265.773438 54.425781 265.59375 54.769531 265.488281 55.152344 C 265.382812 55.535156 265.355469 55.921875 265.40625 56.3125 C 265.460938 56.707031 265.589844 57.074219 265.796875 57.414062 C 266 57.753906 266.265625 58.039062 266.589844 58.269531 C 266.910156 58.5 267.265625 58.65625 267.65625 58.738281 C 275.097656 60.804688 282.539062 62.882812 289.984375 64.976562 L 294.921875 66.363281 C 295.878906 66.628906 296.902344 67.035156 297.902344 66.8125 C 298.140625 66.75 298.371094 66.671875 298.59375 66.566406 C 298.816406 66.457031 299.019531 66.320312 299.207031 66.160156 C 299.523438 65.890625 299.773438 65.570312 299.960938 65.203125 C 300.089844 64.917969 300.195312 64.625 300.269531 64.324219 C 300.351562 64.019531 300.453125 63.714844 300.535156 63.425781 C 300.617188 63.140625 300.839844 62.429688 300.984375 61.9375 C 301.125 61.449219 301.328125 60.757812 301.511719 60.164062 C 301.695312 59.574219 301.921875 58.738281 302.144531 58.023438 C 304.460938 50.238281 306.757812 42.433594 309.042969 34.621094 C 309.15625 34.234375 309.191406 33.839844 309.148438 33.441406 C 309.105469 33.042969 308.988281 32.667969 308.792969 32.316406 C 308.601562 31.964844 308.347656 31.660156 308.035156 31.410156 C 307.71875 31.160156 307.371094 30.980469 306.984375 30.867188 C 306.78125 30.808594 306.578125 30.765625 306.371094 30.746094 Z M 306.371094 30.746094 " fill-opacity="1" fill-rule="nonzero"/><path fill="#e0f5ff" d="M 324.738281 60.816406 C 324.390625 60.792969 324.046875 60.824219 323.710938 60.917969 C 323.371094 61.007812 323.058594 61.152344 322.769531 61.351562 C 322.484375 61.550781 322.238281 61.789062 322.03125 62.074219 C 321.828125 62.355469 321.675781 62.664062 321.574219 63 L 315.820312 82.753906 C 315.1875 85 314.535156 87.261719 313.882812 89.503906 C 313.820312 89.707031 313.777344 89.890625 313.71875 90.074219 L 313.269531 89.972656 L 307.269531 88.566406 L 289.125 84.183594 C 288.753906 84.09375 288.382812 84.078125 288.003906 84.136719 C 287.628906 84.195312 287.277344 84.320312 286.949219 84.519531 C 286.625 84.71875 286.347656 84.96875 286.121094 85.277344 C 285.898438 85.585938 285.738281 85.921875 285.648438 86.292969 C 285.558594 86.664062 285.542969 87.039062 285.597656 87.414062 C 285.65625 87.789062 285.785156 88.140625 285.984375 88.46875 C 286.179688 88.792969 286.433594 89.070312 286.742188 89.292969 C 287.046875 89.519531 287.386719 89.679688 287.757812 89.769531 L 309.105469 94.988281 L 313.574219 96.089844 C 314.535156 96.335938 315.535156 96.679688 316.535156 96.414062 C 316.761719 96.339844 316.980469 96.246094 317.1875 96.128906 C 317.398438 96.023438 317.589844 95.886719 317.757812 95.722656 C 318.050781 95.453125 318.28125 95.140625 318.453125 94.785156 C 318.566406 94.519531 318.660156 94.246094 318.738281 93.96875 C 318.859375 93.582031 318.960938 93.195312 319.085938 92.808594 L 320.617188 87.691406 C 322.902344 80.042969 325.148438 72.359375 327.410156 64.691406 C 327.523438 64.304688 327.554688 63.914062 327.511719 63.515625 C 327.464844 63.117188 327.347656 62.742188 327.15625 62.390625 C 326.960938 62.039062 326.710938 61.738281 326.398438 61.488281 C 326.085938 61.238281 325.734375 61.054688 325.351562 60.941406 C 325.152344 60.878906 324.945312 60.839844 324.738281 60.816406 Z M 324.738281 60.816406 " fill-opacity="1" fill-rule="nonzero"/><path fill="#e0f5ff" d="M 341.535156 92.175781 C 341.1875 92.152344 340.84375 92.191406 340.507812 92.285156 C 340.171875 92.382812 339.863281 92.53125 339.578125 92.734375 C 339.292969 92.933594 339.050781 93.179688 338.851562 93.464844 C 338.652344 93.75 338.503906 94.0625 338.414062 94.398438 L 333.207031 113.847656 C 332.636719 116.050781 332.042969 118.273438 331.453125 120.472656 L 331.390625 120.738281 L 330.921875 120.597656 L 324.699219 118.679688 L 306.125 112.949219 C 305.765625 112.851562 305.402344 112.824219 305.03125 112.871094 C 304.660156 112.914062 304.3125 113.023438 303.988281 113.203125 C 303.660156 113.382812 303.378906 113.613281 303.144531 113.902344 C 302.90625 114.191406 302.734375 114.511719 302.621094 114.867188 C 302.511719 115.222656 302.472656 115.585938 302.5 115.957031 C 302.53125 116.328125 302.628906 116.679688 302.796875 117.011719 C 302.964844 117.34375 303.1875 117.632812 303.464844 117.878906 C 303.746094 118.125 304.058594 118.3125 304.410156 118.433594 C 311.800781 120.71875 319.171875 123.027344 326.535156 125.367188 L 328.800781 126.082031 L 330.308594 126.550781 L 331.820312 127.039062 C 332.257812 127.1875 332.707031 127.296875 333.167969 127.363281 C 333.695312 127.394531 334.199219 127.296875 334.675781 127.078125 C 335.21875 126.832031 335.648438 126.460938 335.964844 125.957031 C 336.289062 125.46875 336.414062 124.855469 336.554688 124.308594 C 336.699219 123.757812 336.859375 123.246094 337.003906 122.714844 C 337.148438 122.1875 337.289062 121.636719 337.453125 121.105469 L 338.003906 119.046875 C 340.105469 111.378906 342.1875 103.675781 344.269531 95.988281 C 344.375 95.597656 344.402344 95.207031 344.351562 94.808594 C 344.300781 94.410156 344.171875 94.035156 343.972656 93.6875 C 343.769531 93.339844 343.511719 93.042969 343.191406 92.796875 C 342.871094 92.554688 342.515625 92.378906 342.125 92.277344 C 341.933594 92.214844 341.738281 92.179688 341.535156 92.175781 Z M 341.535156 92.175781 " fill-opacity="1" fill-rule="nonzero"/><path fill="#e0f5ff" d="M 360.738281 124.671875 C 360.390625 124.652344 360.046875 124.6875 359.710938 124.785156 C 359.375 124.882812 359.066406 125.03125 358.785156 125.238281 C 358.5 125.441406 358.261719 125.6875 358.0625 125.976562 C 357.867188 126.265625 357.722656 126.578125 357.636719 126.917969 C 355.882812 133.398438 354.148438 139.890625 352.433594 146.386719 L 350.71875 152.808594 C 350.675781 152.949219 350.640625 153.09375 350.617188 153.238281 L 350.148438 153.09375 L 343.902344 151.179688 C 337.71875 149.300781 331.535156 147.367188 325.351562 145.449219 C 324.980469 145.320312 324.601562 145.265625 324.214844 145.292969 C 323.824219 145.316406 323.453125 145.414062 323.105469 145.589844 C 322.753906 145.765625 322.453125 146 322.199219 146.296875 C 321.949219 146.59375 321.761719 146.929688 321.644531 147.304688 C 321.53125 147.675781 321.492188 148.054688 321.53125 148.445312 C 321.566406 148.832031 321.679688 149.199219 321.867188 149.539062 C 322.058594 149.882812 322.304688 150.175781 322.609375 150.417969 C 322.917969 150.660156 323.257812 150.832031 323.636719 150.933594 C 331.023438 153.21875 338.398438 155.527344 345.757812 157.867188 L 348.023438 158.578125 L 349.535156 159.046875 L 351.046875 159.539062 C 351.472656 159.699219 351.917969 159.808594 352.371094 159.863281 C 352.894531 159.890625 353.398438 159.800781 353.882812 159.597656 C 354.425781 159.339844 354.859375 158.960938 355.1875 158.457031 C 355.472656 158.027344 355.574219 157.539062 355.71875 157.050781 C 355.863281 156.5625 356.023438 155.910156 356.1875 155.335938 C 356.351562 154.765625 356.496094 154.175781 356.65625 153.605469 C 356.820312 153.035156 357.046875 152.199219 357.25 151.503906 C 359.351562 143.839844 361.414062 136.152344 363.496094 128.488281 C 363.597656 128.097656 363.621094 127.707031 363.570312 127.308594 C 363.515625 126.910156 363.390625 126.535156 363.1875 126.1875 C 362.988281 125.84375 362.730469 125.546875 362.410156 125.300781 C 362.09375 125.054688 361.738281 124.878906 361.351562 124.777344 C 361.152344 124.710938 360.949219 124.679688 360.738281 124.671875 Z M 360.738281 124.671875 " fill-opacity="1" fill-rule="nonzero"/><path fill="#e0f5ff" d="M 363.496094 203.472656 C 363.015625 203.476562 362.570312 203.59375 362.148438 203.820312 C 361.730469 204.046875 361.390625 204.359375 361.128906 204.757812 C 339.003906 237.894531 316.855469 271.011719 294.675781 304.109375 C 286.839844 315.839844 279.023438 327.558594 271.226562 339.257812 C 270.964844 339.59375 270.777344 339.964844 270.671875 340.375 C 270.5625 340.785156 270.542969 341.199219 270.609375 341.617188 C 270.675781 342.035156 270.820312 342.421875 271.050781 342.78125 C 271.277344 343.136719 271.570312 343.433594 271.921875 343.667969 C 272.277344 343.90625 272.660156 344.058594 273.078125 344.132812 C 273.496094 344.207031 273.914062 344.195312 274.324219 344.097656 C 274.738281 343.996094 275.113281 343.820312 275.449219 343.5625 C 275.789062 343.308594 276.0625 342.992188 276.269531 342.625 C 284.0625 330.90625 291.875 319.183594 299.695312 307.453125 C 321.765625 274.289062 343.835938 241.117188 365.902344 207.9375 C 366.117188 207.625 366.257812 207.277344 366.335938 206.90625 C 366.410156 206.53125 366.410156 206.160156 366.335938 205.785156 C 366.257812 205.414062 366.117188 205.066406 365.902344 204.75 C 365.691406 204.4375 365.425781 204.171875 365.105469 203.964844 C 364.617188 203.636719 364.082031 203.476562 363.496094 203.472656 Z M 363.496094 203.472656 " fill-opacity="1" fill-rule="nonzero"/><path fill="#e0f5ff" d="M 295.535156 307.210938 C 295.074219 307.25 294.617188 307.316406 294.167969 307.414062 L 292.65625 307.636719 L 291.085938 307.902344 L 288.921875 308.25 C 281.085938 309.484375 273.242188 310.757812 265.390625 312.0625 C 264.992188 312.125 264.625 312.265625 264.28125 312.476562 C 263.941406 312.6875 263.652344 312.957031 263.417969 313.28125 C 263.183594 313.609375 263.023438 313.964844 262.929688 314.359375 C 262.839844 314.75 262.824219 315.140625 262.890625 315.539062 C 262.953125 315.933594 263.09375 316.300781 263.304688 316.644531 C 263.515625 316.984375 263.785156 317.273438 264.113281 317.507812 C 264.4375 317.742188 264.796875 317.902344 265.1875 317.996094 C 265.578125 318.085938 265.972656 318.101562 266.371094 318.035156 L 286.269531 314.734375 L 292.820312 313.632812 L 293.429688 313.53125 C 293.472656 313.691406 293.492188 313.855469 293.535156 314.019531 C 293.921875 316.078125 294.328125 318.136719 294.738281 320.21875 C 295.960938 326.496094 297.144531 332.796875 298.351562 339.074219 C 298.429688 339.441406 298.578125 339.773438 298.789062 340.082031 C 299 340.390625 299.261719 340.644531 299.574219 340.851562 C 299.886719 341.054688 300.226562 341.195312 300.589844 341.269531 C 300.957031 341.34375 301.324219 341.34375 301.691406 341.277344 C 302.054688 341.207031 302.398438 341.070312 302.710938 340.871094 C 303.027344 340.667969 303.289062 340.417969 303.507812 340.113281 C 303.722656 339.808594 303.871094 339.476562 303.957031 339.113281 C 304.046875 338.75 304.058594 338.382812 304.003906 338.015625 C 302.617188 330.675781 301.242188 323.34375 299.878906 316.015625 L 298.960938 311.144531 C 298.800781 310.1875 298.695312 309.105469 298.0625 308.332031 C 297.914062 308.140625 297.746094 307.96875 297.554688 307.820312 C 297.355469 307.679688 297.144531 307.554688 296.921875 307.453125 C 296.476562 307.261719 296.015625 307.179688 295.535156 307.210938 Z M 295.535156 307.210938 " fill-opacity="1" fill-rule="nonzero"/><path fill="#e0f5ff" d="M 313.433594 278.789062 C 313.152344 278.800781 312.871094 278.835938 312.59375 278.890625 L 311.433594 279.074219 L 306.59375 279.847656 C 298.921875 281.050781 291.246094 282.316406 283.574219 283.558594 C 283.203125 283.652344 282.863281 283.808594 282.550781 284.03125 C 282.238281 284.25 281.976562 284.519531 281.769531 284.839844 C 281.558594 285.160156 281.414062 285.507812 281.335938 285.882812 C 281.257812 286.253906 281.25 286.628906 281.3125 287.007812 C 281.375 287.382812 281.503906 287.738281 281.699219 288.066406 C 281.898438 288.390625 282.144531 288.671875 282.449219 288.90625 C 282.75 289.140625 283.085938 289.3125 283.453125 289.421875 C 283.820312 289.527344 284.191406 289.566406 284.574219 289.53125 L 304.125 286.289062 L 310.777344 285.167969 L 311.269531 285.089844 L 311.390625 285.558594 C 311.839844 287.515625 312.269531 289.472656 312.71875 291.429688 C 314.042969 297.21875 315.351562 303.050781 316.65625 308.859375 C 316.742188 309.230469 316.890625 309.570312 317.113281 309.882812 C 317.332031 310.191406 317.601562 310.449219 317.921875 310.652344 C 318.246094 310.851562 318.59375 310.988281 318.96875 311.050781 C 319.34375 311.117188 319.714844 311.105469 320.085938 311.023438 C 320.457031 310.9375 320.796875 310.785156 321.105469 310.566406 C 321.417969 310.347656 321.675781 310.078125 321.878906 309.757812 C 322.078125 309.4375 322.214844 309.089844 322.277344 308.714844 C 322.34375 308.339844 322.332031 307.96875 322.25 307.597656 C 320.71875 300.664062 319.167969 293.734375 317.65625 286.78125 C 317.492188 286.066406 317.332031 285.351562 317.1875 284.640625 L 316.882812 283.210938 C 316.777344 282.742188 316.65625 282.273438 316.554688 281.785156 C 316.492188 281.417969 316.394531 281.054688 316.269531 280.703125 C 316.050781 280.164062 315.703125 279.722656 315.226562 279.378906 C 315.011719 279.222656 314.78125 279.09375 314.535156 278.992188 C 314.179688 278.863281 313.8125 278.792969 313.433594 278.789062 Z M 313.433594 278.789062 " fill-opacity="1" fill-rule="nonzero"/><path fill="#e0f5ff" d="M 332.574219 250.550781 C 332.195312 250.574219 331.824219 250.628906 331.453125 250.714844 L 330.554688 250.875 L 325.859375 251.734375 L 303.453125 255.851562 C 303.0625 255.929688 302.703125 256.082031 302.371094 256.304688 C 302.042969 256.523438 301.765625 256.800781 301.542969 257.128906 C 301.320312 257.460938 301.167969 257.820312 301.089844 258.207031 C 301.007812 258.597656 301.003906 258.988281 301.074219 259.378906 C 301.148438 259.769531 301.289062 260.128906 301.503906 260.464844 C 301.71875 260.800781 301.988281 261.082031 302.316406 261.308594 C 302.640625 261.539062 302.996094 261.699219 303.382812 261.789062 C 303.773438 261.875 304.160156 261.890625 304.554688 261.824219 L 323.59375 258.238281 L 330.085938 256.992188 L 330.25 256.992188 C 330.269531 257.074219 330.269531 257.175781 330.289062 257.277344 C 330.636719 259.316406 330.964844 261.375 331.289062 263.414062 C 332.308594 269.632812 333.289062 275.871094 334.269531 282.113281 C 334.347656 282.46875 334.492188 282.796875 334.695312 283.101562 C 334.902344 283.402344 335.15625 283.65625 335.460938 283.863281 C 335.761719 284.070312 336.09375 284.210938 336.449219 284.292969 C 336.808594 284.371094 337.167969 284.382812 337.527344 284.328125 C 337.890625 284.269531 338.226562 284.148438 338.542969 283.960938 C 338.859375 283.773438 339.128906 283.539062 339.351562 283.25 C 339.578125 282.960938 339.742188 282.640625 339.84375 282.289062 C 339.945312 281.9375 339.976562 281.578125 339.941406 281.214844 C 338.800781 273.875 337.664062 266.542969 336.535156 259.214844 C 336.289062 257.664062 336.066406 256.136719 335.820312 254.585938 C 335.675781 253.628906 335.636719 252.570312 335.003906 251.773438 C 334.855469 251.570312 334.683594 251.386719 334.492188 251.222656 C 334.285156 251.066406 334.0625 250.9375 333.820312 250.835938 C 333.425781 250.648438 333.011719 250.550781 332.574219 250.550781 Z M 332.574219 250.550781 " fill-opacity="1" fill-rule="nonzero"/><path fill="#e0f5ff" d="M 352.78125 220.316406 C 352.25 220.273438 351.699219 220.417969 351.167969 220.5 L 349.515625 220.804688 L 348.003906 221.089844 L 345.941406 221.457031 C 338.414062 222.824219 330.882812 224.230469 323.371094 225.617188 C 322.976562 225.6875 322.609375 225.835938 322.273438 226.054688 C 321.9375 226.273438 321.65625 226.546875 321.425781 226.878906 C 321.199219 227.207031 321.042969 227.570312 320.960938 227.960938 C 320.875 228.355469 320.871094 228.746094 320.945312 229.140625 C 321.019531 229.535156 321.164062 229.902344 321.382812 230.238281 C 321.601562 230.574219 321.875 230.859375 322.207031 231.085938 C 322.535156 231.3125 322.898438 231.46875 323.292969 231.550781 C 323.683594 231.636719 324.078125 231.640625 324.472656 231.570312 L 343.554688 227.980469 L 349.839844 226.777344 L 350.167969 226.714844 C 350.1875 226.820312 350.1875 226.898438 350.207031 227.003906 C 350.535156 229.039062 350.882812 231.101562 351.207031 233.160156 C 352.230469 239.378906 353.207031 245.597656 354.1875 251.835938 C 354.269531 252.191406 354.410156 252.523438 354.617188 252.824219 C 354.820312 253.128906 355.074219 253.382812 355.378906 253.585938 C 355.679688 253.792969 356.011719 253.9375 356.367188 254.015625 C 356.726562 254.097656 357.085938 254.109375 357.445312 254.050781 C 357.808594 253.992188 358.148438 253.871094 358.460938 253.683594 C 358.777344 253.5 359.046875 253.261719 359.273438 252.972656 C 359.496094 252.683594 359.660156 252.363281 359.761719 252.011719 C 359.863281 251.660156 359.898438 251.300781 359.863281 250.9375 C 358.71875 243.679688 357.597656 236.441406 356.496094 229.164062 C 356.25 227.550781 355.984375 225.941406 355.738281 224.332031 C 355.597656 223.371094 355.554688 222.3125 354.945312 221.496094 C 354.78125 221.304688 354.605469 221.128906 354.414062 220.96875 C 353.929688 220.59375 353.386719 220.375 352.78125 220.316406 Z M 352.78125 220.316406 " fill-opacity="1" fill-rule="nonzero"/><g clip-path="url(#a5fd92c3c5)"><path fill="#e0f5ff" d="M 357.332031 186.53125 L 307.105469 186.695312 L 233.714844 186.859375 L 190.347656 187.019531 C 189.96875 187.054688 189.605469 187.152344 189.261719 187.320312 C 188.921875 187.492188 188.621094 187.714844 188.363281 187.996094 C 188.105469 188.277344 187.90625 188.597656 187.769531 188.953125 C 187.632812 189.308594 187.5625 189.675781 187.566406 190.058594 C 187.566406 190.4375 187.636719 190.808594 187.777344 191.160156 C 187.917969 191.515625 188.117188 191.832031 188.375 192.113281 C 188.636719 192.394531 188.9375 192.617188 189.28125 192.78125 C 189.625 192.949219 189.988281 193.046875 190.367188 193.074219 L 233.757812 192.894531 L 307.125 192.484375 L 357.351562 192.261719 C 357.753906 192.292969 358.144531 192.242188 358.523438 192.113281 C 358.90625 191.980469 359.242188 191.777344 359.539062 191.503906 C 359.832031 191.230469 360.0625 190.910156 360.222656 190.542969 C 360.382812 190.171875 360.460938 189.789062 360.460938 189.386719 C 360.460938 188.984375 360.378906 188.597656 360.214844 188.230469 C 360.050781 187.863281 359.820312 187.542969 359.523438 187.273438 C 359.226562 187 358.886719 186.800781 358.503906 186.671875 C 358.125 186.542969 357.730469 186.496094 357.332031 186.53125 Z M 357.332031 186.53125 " fill-opacity="1" fill-rule="nonzero"/></g><path fill="#e0f5ff" d="M 208.328125 165.144531 C 207.488281 165.121094 206.761719 165.394531 206.144531 165.960938 C 205.851562 166.234375 205.617188 166.554688 205.453125 166.917969 C 205.285156 167.28125 205.191406 167.664062 205.179688 168.066406 C 205.164062 168.46875 205.222656 168.855469 205.363281 169.234375 C 205.503906 169.609375 205.707031 169.945312 205.980469 170.242188 L 220.101562 185.492188 L 224.917969 190.691406 L 225.328125 191.117188 L 224.859375 191.585938 L 220.207031 196.234375 C 215.46875 200.964844 210.742188 205.667969 206.019531 210.34375 C 205.722656 210.605469 205.484375 210.914062 205.316406 211.273438 C 205.144531 211.632812 205.050781 212.007812 205.035156 212.40625 C 205.023438 212.804688 205.085938 213.1875 205.230469 213.554688 C 205.375 213.925781 205.585938 214.253906 205.867188 214.535156 C 206.148438 214.816406 206.472656 215.03125 206.839844 215.179688 C 207.207031 215.328125 207.589844 215.394531 207.988281 215.386719 C 208.386719 215.375 208.765625 215.285156 209.125 215.117188 C 209.484375 214.953125 209.796875 214.71875 210.0625 214.421875 L 226.632812 198.050781 L 230.328125 194.441406 C 231.042969 193.75 231.917969 193.054688 232.207031 192.078125 C 232.28125 191.851562 232.332031 191.621094 232.347656 191.382812 C 232.355469 191.136719 232.339844 190.894531 232.308594 190.648438 C 232.226562 190.25 232.078125 189.875 231.859375 189.527344 C 231.640625 189.207031 231.386719 188.914062 231.101562 188.652344 L 230.449219 187.917969 L 226.980469 184.125 C 221.46875 178.117188 215.953125 172.117188 210.429688 166.121094 C 209.863281 165.507812 209.164062 165.183594 208.328125 165.144531 Z M 208.328125 165.144531 " fill-opacity="1" fill-rule="nonzero"/><path fill="#e0f5ff" d="M 243.207031 164.308594 C 242.371094 164.277344 241.640625 164.542969 241.023438 165.105469 C 240.726562 165.378906 240.496094 165.695312 240.332031 166.0625 C 240.164062 166.425781 240.070312 166.808594 240.054688 167.210938 C 240.039062 167.613281 240.101562 168 240.242188 168.378906 C 240.378906 168.753906 240.585938 169.089844 240.859375 169.386719 C 245.484375 174.429688 250.132812 179.449219 254.796875 184.453125 L 259.410156 189.40625 L 259.960938 189.996094 L 259.59375 190.40625 L 255.347656 194.910156 C 251.0625 199.476562 246.765625 204.039062 242.449219 208.589844 C 242.164062 208.863281 241.941406 209.179688 241.785156 209.542969 C 241.632812 209.90625 241.554688 210.289062 241.554688 210.683594 C 241.554688 211.078125 241.632812 211.457031 241.792969 211.820312 C 241.949219 212.183594 242.171875 212.5 242.460938 212.769531 C 242.746094 213.039062 243.078125 213.242188 243.449219 213.378906 C 243.820312 213.511719 244.203125 213.570312 244.597656 213.546875 C 244.996094 213.523438 245.367188 213.421875 245.722656 213.246094 C 246.074219 213.070312 246.378906 212.828125 246.632812 212.527344 C 251.640625 207.238281 256.667969 201.953125 261.714844 196.664062 L 265.0625 193.15625 C 265.738281 192.445312 266.554688 191.769531 266.796875 190.792969 C 266.863281 190.566406 266.898438 190.335938 266.898438 190.097656 C 266.921875 189.863281 266.902344 189.632812 266.839844 189.40625 C 266.636719 188.386719 265.898438 187.714844 265.226562 186.980469 L 264.1875 185.859375 L 262.960938 184.511719 C 262.492188 183.984375 261.980469 183.453125 261.511719 182.902344 C 256.125 177.011719 250.714844 171.160156 245.328125 165.285156 C 244.753906 164.675781 244.046875 164.347656 243.207031 164.308594 Z M 243.207031 164.308594 " fill-opacity="1" fill-rule="nonzero"/><path fill="#e0f5ff" d="M 278.347656 165.429688 C 277.738281 165.421875 277.171875 165.582031 276.65625 165.914062 C 276.140625 166.242188 275.761719 166.691406 275.515625 167.25 C 275.269531 167.8125 275.199219 168.394531 275.308594 169 C 275.414062 169.601562 275.679688 170.125 276.105469 170.566406 L 290.042969 184.960938 C 291.574219 186.550781 293.105469 188.140625 294.65625 189.710938 L 294.984375 190.058594 L 294.574219 190.445312 L 289.800781 194.929688 C 285.042969 199.394531 280.289062 203.820312 275.511719 208.265625 C 275.238281 208.527344 275.023438 208.832031 274.871094 209.179688 C 274.714844 209.527344 274.632812 209.890625 274.621094 210.269531 C 274.609375 210.648438 274.671875 211.015625 274.804688 211.371094 C 274.9375 211.726562 275.132812 212.042969 275.390625 212.324219 C 275.648438 212.601562 275.949219 212.816406 276.296875 212.976562 C 276.640625 213.132812 277.003906 213.21875 277.382812 213.230469 C 277.761719 213.246094 278.128906 213.183594 278.484375 213.050781 C 278.835938 212.917969 279.152344 212.722656 279.429688 212.464844 L 296.308594 196.828125 L 299.757812 193.667969 L 300.617188 192.851562 C 300.914062 192.605469 301.183594 192.332031 301.433594 192.035156 C 301.800781 191.574219 302.019531 191.050781 302.085938 190.464844 C 302.152344 189.878906 302.050781 189.320312 301.777344 188.792969 C 301.535156 188.339844 301.222656 187.9375 300.839844 187.589844 L 299.636719 186.328125 C 299.226562 185.898438 298.800781 185.472656 298.390625 185.023438 L 296.902344 183.472656 C 291.429688 177.746094 285.941406 172.054688 280.472656 166.347656 C 279.886719 165.757812 279.179688 165.453125 278.347656 165.429688 Z M 278.347656 165.429688 " fill-opacity="1" fill-rule="nonzero"/><path fill="#e0f5ff" d="M 315.71875 165.0625 C 314.875 165.042969 314.15625 165.328125 313.554688 165.917969 C 313.265625 166.199219 313.042969 166.523438 312.882812 166.890625 C 312.722656 167.257812 312.636719 167.640625 312.628906 168.042969 C 312.621094 168.445312 312.691406 168.832031 312.835938 169.207031 C 312.984375 169.578125 313.195312 169.910156 313.472656 170.199219 L 327.410156 184.59375 L 332.023438 189.34375 L 332.371094 189.691406 L 331.941406 190.078125 L 327.167969 194.566406 C 322.433594 199.03125 317.65625 203.453125 312.902344 207.898438 C 312.644531 208.164062 312.449219 208.464844 312.308594 208.804688 C 312.167969 209.148438 312.097656 209.5 312.09375 209.871094 C 312.089844 210.238281 312.15625 210.59375 312.289062 210.9375 C 312.425781 211.277344 312.617188 211.585938 312.867188 211.855469 C 313.117188 212.125 313.410156 212.335938 313.742188 212.492188 C 314.078125 212.652344 314.425781 212.742188 314.796875 212.761719 C 315.164062 212.785156 315.519531 212.738281 315.871094 212.625 C 316.222656 212.511719 316.539062 212.335938 316.820312 212.097656 L 333.699219 196.460938 L 337.125 193.300781 L 338.003906 192.484375 C 338.300781 192.238281 338.574219 191.96875 338.820312 191.667969 C 339.179688 191.203125 339.390625 190.683594 339.453125 190.097656 C 339.515625 189.515625 339.421875 188.957031 339.167969 188.425781 C 338.941406 187.957031 338.574219 187.613281 338.230469 187.246094 L 337.023438 185.960938 L 335.757812 184.65625 L 334.269531 183.085938 C 328.820312 177.378906 323.332031 171.6875 317.859375 166 C 317.273438 165.394531 316.5625 165.082031 315.71875 165.0625 Z M 315.71875 165.0625 " fill-opacity="1" fill-rule="nonzero"/><path fill="#e0f5ff" d="M 300.511719 118.578125 C 300.308594 118.578125 300.101562 118.597656 299.902344 118.640625 C 299.507812 118.726562 299.144531 118.886719 298.816406 119.117188 C 298.484375 119.347656 298.210938 119.636719 297.996094 119.976562 C 297.777344 120.316406 297.636719 120.683594 297.566406 121.082031 C 297.496094 121.480469 297.507812 121.875 297.59375 122.269531 C 299.105469 128.832031 300.59375 135.378906 302.105469 141.921875 C 302.59375 144.082031 303.105469 146.265625 303.59375 148.40625 L 303.71875 148.875 L 303.308594 148.957031 L 296.984375 150.261719 L 277.777344 154.132812 C 277.40625 154.214844 277.0625 154.359375 276.75 154.574219 C 276.433594 154.785156 276.171875 155.050781 275.960938 155.367188 C 275.753906 155.683594 275.609375 156.027344 275.535156 156.402344 C 275.460938 156.773438 275.460938 157.144531 275.53125 157.519531 C 275.605469 157.894531 275.75 158.238281 275.960938 158.554688 C 276.175781 158.871094 276.441406 159.136719 276.757812 159.347656 C 277.078125 159.558594 277.421875 159.699219 277.796875 159.769531 C 278.171875 159.84375 278.546875 159.839844 278.921875 159.761719 C 286.378906 158.265625 293.832031 156.792969 301.289062 155.335938 L 306.269531 154.359375 C 307.226562 154.175781 308.328125 154.09375 309.105469 153.421875 C 309.300781 153.269531 309.472656 153.09375 309.617188 152.890625 C 309.773438 152.675781 309.902344 152.445312 310.003906 152.199219 C 310.390625 151.199219 310.125 150.34375 309.902344 149.382812 C 309.800781 148.894531 309.675781 148.386719 309.574219 147.894531 C 309.472656 147.40625 309.351562 146.855469 309.226562 146.324219 C 309.105469 145.796875 308.921875 144.917969 308.757812 144.207031 C 307.03125 136.457031 305.28125 128.703125 303.511719 120.941406 C 303.4375 120.601562 303.308594 120.285156 303.125 119.992188 C 302.9375 119.695312 302.707031 119.441406 302.433594 119.226562 C 302.160156 119.011719 301.859375 118.847656 301.53125 118.734375 C 301.199219 118.625 300.863281 118.570312 300.511719 118.578125 Z M 300.511719 118.578125 " fill-opacity="1" fill-rule="nonzero"/><path fill="#e0f5ff" d="M 279.65625 213.320312 C 279.28125 213.292969 278.917969 213.332031 278.558594 213.4375 C 278.199219 213.546875 277.871094 213.714844 277.574219 213.941406 C 277.277344 214.167969 277.03125 214.441406 276.835938 214.757812 C 276.640625 215.078125 276.507812 215.417969 276.4375 215.785156 C 276.371094 216.152344 276.367188 216.519531 276.433594 216.890625 C 276.5 217.257812 276.628906 217.601562 276.824219 217.921875 C 277.015625 218.238281 277.261719 218.515625 277.554688 218.746094 C 277.851562 218.976562 278.175781 219.144531 278.535156 219.253906 L 297.636719 224.839844 L 304.144531 226.738281 L 304.390625 226.796875 C 304.347656 226.984375 304.292969 227.167969 304.226562 227.347656 C 303.574219 229.449219 302.902344 231.546875 302.25 233.628906 C 300.289062 239.894531 298.300781 246.140625 296.289062 252.363281 C 296.199219 252.71875 296.175781 253.078125 296.222656 253.441406 C 296.269531 253.804688 296.382812 254.144531 296.5625 254.464844 C 296.738281 254.785156 296.96875 255.0625 297.25 255.292969 C 297.535156 255.527344 297.851562 255.699219 298.199219 255.808594 C 298.546875 255.921875 298.90625 255.964844 299.269531 255.941406 C 299.636719 255.917969 299.984375 255.824219 300.3125 255.667969 C 300.644531 255.511719 300.933594 255.300781 301.183594 255.03125 C 301.433594 254.761719 301.625 254.460938 301.757812 254.117188 C 304.125 246.765625 306.5 239.417969 308.882812 232.078125 C 309.351562 230.589844 309.839844 229.101562 310.328125 227.613281 L 310.699219 226.472656 C 310.839844 226.109375 310.941406 225.734375 311.003906 225.351562 C 311.101562 224.761719 311.03125 224.195312 310.792969 223.648438 C 310.558594 223.105469 310.191406 222.664062 309.699219 222.332031 C 309.226562 222.007812 308.617188 221.863281 308.066406 221.703125 L 306.492188 221.230469 L 304.921875 220.761719 L 302.921875 220.171875 C 295.371094 217.914062 287.8125 215.671875 280.246094 213.445312 C 280.054688 213.382812 279.855469 213.34375 279.65625 213.320312 Z M 279.65625 213.320312 " fill-opacity="1" fill-rule="nonzero"/><path fill="#e0f5ff" d="M 371.800781 258.707031 C 371.550781 258.714844 371.304688 258.757812 371.066406 258.828125 C 370.148438 259.113281 369.535156 259.867188 368.902344 260.5 L 367.839844 261.558594 L 366.597656 262.804688 L 365.105469 264.3125 C 359.597656 269.832031 354.113281 275.371094 348.65625 280.929688 C 348.375 281.214844 348.15625 281.542969 348.003906 281.914062 C 347.851562 282.285156 347.777344 282.671875 347.78125 283.074219 C 347.78125 283.476562 347.859375 283.859375 348.015625 284.230469 C 348.171875 284.601562 348.390625 284.929688 348.679688 285.210938 C 348.964844 285.492188 349.292969 285.710938 349.664062 285.863281 C 350.035156 286.015625 350.421875 286.089844 350.824219 286.085938 C 351.226562 286.085938 351.613281 286.007812 351.984375 285.851562 C 352.355469 285.695312 352.679688 285.476562 352.964844 285.191406 L 367.023438 270.878906 C 368.554688 269.308594 370.105469 267.738281 371.636719 266.148438 L 371.921875 265.882812 L 372.167969 266.148438 L 376.617188 270.898438 C 381.105469 275.6875 385.578125 280.519531 390.046875 285.332031 C 390.296875 285.636719 390.601562 285.875 390.953125 286.054688 C 391.304688 286.230469 391.675781 286.332031 392.070312 286.359375 C 392.460938 286.382812 392.84375 286.332031 393.214844 286.199219 C 393.585938 286.070312 393.917969 285.871094 394.207031 285.601562 C 394.496094 285.335938 394.722656 285.023438 394.882812 284.664062 C 395.042969 284.304688 395.125 283.929688 395.132812 283.535156 C 395.136719 283.140625 395.066406 282.761719 394.917969 282.398438 C 394.765625 282.035156 394.550781 281.714844 394.269531 281.4375 C 388.964844 275.714844 383.664062 269.972656 378.371094 264.210938 L 376.800781 262.496094 C 376.394531 262.050781 375.964844 261.601562 375.554688 261.132812 L 374.597656 260.113281 C 374.355469 259.808594 374.082031 259.539062 373.78125 259.296875 C 373.425781 259.027344 373.03125 258.851562 372.597656 258.765625 C 372.335938 258.707031 372.070312 258.683594 371.800781 258.707031 Z M 371.800781 258.707031 " fill-opacity="1" fill-rule="nonzero"/><path stroke-linecap="butt" transform="matrix(0.204087, 0, 0, 0.203882, 170.040725, -14.903766)" fill="none" stroke-linejoin="round" d="M 915.503006 1013.902051 C 915.503006 968.09198 954.204368 930.999426 1001.901596 930.999426 C 1049.598824 930.999426 1088.300186 968.09198 1088.300186 1013.902051 C 1088.300186 1059.692962 1049.598824 1096.900472 1001.901596 1096.900472 C 954.204368 1096.900472 915.503006 1059.692962 915.503006 1013.902051 Z M 915.503006 1013.902051 " stroke="#98a6c0" stroke-width="28" stroke-opacity="1" stroke-miterlimit="4"/></svg>